<?xml version="1.0" standalone="no"?>
<!DOCTYPE svg PUBLIC "-//W3C//DTD SVG 1.1//EN" "http://www.w3.org/Graphics/SVG/1.1/DTD/svg11.dtd" >
<svg>
<metadata>
Created by FontForge 20120731 at Thu Nov  7 13:18:21 2013
 By root
Copyright (c) 2009 by One by Four. All rights reserved.
</metadata>
<defs>
<font id="MatchbookSerif" horiz-adv-x="235" >
  <font-face 
    font-family="Matchbook"
    font-weight="400"
    font-stretch="normal"
    units-per-em="1000"
    panose-1="2 0 0 0 0 0 0 0 0 0"
    ascent="750"
    descent="-250"
    x-height="390"
    cap-height="750"
    bbox="0 -180 351 878.5"
    underline-thickness="50"
    underline-position="-50"
    unicode-range="U+0020-FB02"
  />
<missing-glyph horiz-adv-x="500" 
 />
    <glyph glyph-name=".notdef" horiz-adv-x="500" 
 />
    <glyph glyph-name=".null" horiz-adv-x="0" 
 />
    <glyph glyph-name="nonmarkingreturn" horiz-adv-x="500" 
 />
    <glyph glyph-name="space" unicode=" " horiz-adv-x="170" 
 />
    <glyph glyph-name="space" unicode="&#xa0;" horiz-adv-x="170" 
 />
    <glyph glyph-name="A" unicode="A" 
d="M196 30q7 0 11 -4.5t4 -10.5t-4 -10.5t-11 -4.5h-51q-7 0 -11.5 4.5t-4.5 10.5t4.5 10.5t11.5 4.5h10v330h-74v-330h10q7 0 11.5 -4.5t4.5 -10.5t-4.5 -10.5t-11.5 -4.5h-51q-7 0 -11 4.5t-4 10.5t4 10.5t11 4.5h10v652q0 28 20 48t48 20t48 -20t20 -48v-69v-583h10z
M155 390v27v265q0 16 -10.5 26.5t-26.5 10.5q-15 0 -26 -10.5t-11 -26.5v-292h74z" />
    <glyph glyph-name="B" unicode="B" horiz-adv-x="236" 
d="M117 750q29 0 48.5 -19.5t19.5 -47.5v-87v-110v-59q0 -16 -7 -29.5t-18 -22.5q20 -16 24 -41q1 -2 1 -5v-6v-168v-87q0 -29 -19.5 -48.5t-48.5 -19.5q-28 0 -47.5 19.5t-19.5 48.5v615q0 28 19.5 47.5t47.5 19.5zM155 323q0 15 -11 26t-27 11h-37v-292q0 -16 11 -27
t26 -11q16 0 27 11t11 27v87v168zM117 390q16 0 27 11t11 26v59v110v87q0 15 -11 26t-27 11q-15 0 -26 -11t-11 -26v-293h37z" />
    <glyph glyph-name="C" unicode="C" 
d="M170 85q7 0 11 -4.5t4 -10.5v-1v-1q0 -28 -19.5 -48t-47.5 -20q-29 0 -48.5 20t-19.5 48v615q0 28 19.5 47.5t48.5 19.5q28 0 47.5 -19.5t19.5 -47.5q0 -16 -15 -16h-51q-16 0 -16 16q0 6 4.5 10.5t11.5 4.5h33q-10 22 -34 22q-16 0 -26.5 -11t-10.5 -26v-615
q0 -16 10.5 -26.5t26.5 -10.5q12 0 21 6.5t13 16.5h-33q-16 0 -16 16q0 6 4.5 10.5t11.5 4.5h51v0z" />
    <glyph glyph-name="D" unicode="D" horiz-adv-x="240" 
d="M118 750q29 0 48.5 -19.5t19.5 -47.5v-615q0 -29 -19.5 -48.5t-48.5 -19.5h-52q-6 0 -10.5 4.5t-4.5 10.5v720q0 6 4.5 10.5t10.5 4.5h52zM156 683q0 15 -11 26t-27 11h-37v-690h37q16 0 27 11t11 27v615z" />
    <glyph glyph-name="dollar" unicode="$" horiz-adv-x="240" 
d="M105 639q0 6 4 10.5t11 4.5h34q-4 11 -13.5 18t-21.5 7q-15 0 -25.5 -10.5t-11.5 -24.5l104 -533q0 -1 0.5 -1.5t0.5 -1.5q0 -24 -15 -42t-38 -23v-27q0 -7 -4.5 -11.5t-10.5 -4.5t-10.5 4.5t-4.5 11.5v27q-23 5 -38 23t-15 42v1q0 15 16 15h51q15 0 15 -15
q0 -6 -4 -10.5t-11 -4.5h-33q4 -10 13.5 -16.5t20.5 -6.5q15 0 25.5 10.5t11.5 25.5l-104 532q-1 1 -1 3q0 24 15 42.5t38 23.5v27q0 7 4.5 11t10.5 4t10.5 -4t4.5 -11v-27q23 -5 38 -23.5t15 -42.5l-1 -1q0 -1 0.5 -1t0.5 -1q0 -6 -4.5 -10.5t-11.5 -4.5h-51q-7 0 -11 4.5
t-4 10.5z" />
    <glyph glyph-name="percent" unicode="%" horiz-adv-x="240" 
d="M66 0h-2q-7 1 -10.5 6t-2.5 11l105 720q1 6 5.5 10t11.5 3q6 -2 10 -6.5t3 -11.5l-105 -719q-2 -13 -15 -13zM92 636q-17 0 -29.5 12.5t-12.5 29.5t12.5 29t29.5 12t29 -12t12 -29t-12 -29.5t-29 -12.5zM92 689q-11 0 -11 -11q0 -12 11 -12t11 12q0 11 -11 11zM145 14
q-17 0 -29.5 12t-12.5 29t12.5 29.5t29.5 12.5t29 -12.5t12 -29.5t-12 -29t-29 -12zM145 66q-12 0 -12 -11t12 -11q11 0 11 11t-11 11z" />
    <glyph glyph-name="numbersign" unicode="#" horiz-adv-x="211" 
d="M160 358q7 0 11 -4.5t4 -10.5q0 -16 -15 -16h-5v-5q0 -6 -4.5 -10.5t-10.5 -4.5t-10.5 4.5t-4.5 10.5v5h-34v-5q0 -6 -4.5 -10.5t-10.5 -4.5q-7 0 -11 4.5t-4 10.5v5h-5q-16 0 -16 16q0 6 4.5 10.5t11.5 4.5h5v34h-5q-16 0 -16 15q0 6 4.5 10.5t11.5 4.5h5v5q0 15 15 15
q6 0 10.5 -4t4.5 -11v-5h34v5q0 7 4.5 11t10.5 4t10.5 -4t4.5 -11v-5h5q7 0 11 -4.5t4 -10.5q0 -15 -15 -15h-5v-34h5zM125 358v34h-34v-34h34z" />
    <glyph glyph-name="ampersand" unicode="&#x26;" horiz-adv-x="271" 
d="M214 499q6 0 10.5 -4.5t4.5 -11.5q0 -6 -4.5 -10.5t-10.5 -4.5h-29v-452q0 -16 -15 -16h-52q-28 0 -48 20t-20 48v363q0 16 7 29.5t18 22.5q-11 10 -18 23.5t-7 29.5v147q0 28 20 47.5t48 19.5t47.5 -19.5t19.5 -47.5q0 -15 -15 -15h-1q-1 0 -1.5 -0.5t-1.5 -0.5h-52
q-6 0 -10.5 4.5t-4.5 11.5q0 6 4.5 10.5t10.5 4.5h38q-10 22 -34 22q-16 0 -26.5 -11t-10.5 -26v-147q0 -16 10.5 -26.5t26.5 -10.5h37v28h-11q-6 0 -10.5 4.5t-4.5 11.5q0 6 4.5 10.5t10.5 4.5h52q6 0 10.5 -4.5t4.5 -10.5q0 -7 -4.5 -11.5t-10.5 -4.5h-11v-28h29zM155 468
h-37q-16 0 -26.5 -10.5t-10.5 -26.5v-363q0 -16 10.5 -26.5t26.5 -10.5h37v437z" />
    <glyph glyph-name="parenleft" unicode="(" horiz-adv-x="180" 
d="M117 0q-28 0 -47.5 19.5t-19.5 47.5v615q0 28 19.5 48t47.5 20q7 0 11.5 -4.5t4.5 -10.5q0 -16 -16 -16q-15 0 -26 -10.5t-11 -26.5v-615q0 -15 11 -26t26 -11q7 0 11.5 -4.5t4.5 -10.5t-4.5 -10.5t-11.5 -4.5z" />
    <glyph glyph-name="parenright" unicode=")" horiz-adv-x="190" 
d="M64 0q-6 0 -10.5 4.5t-4.5 10.5t4.5 10.5t10.5 4.5q16 0 26.5 11t10.5 26v615q0 16 -10.5 26.5t-26.5 10.5q-6 0 -10.5 4.5t-4.5 11.5q0 6 4.5 10.5t10.5 4.5q29 0 48.5 -20t19.5 -48v-615q0 -28 -19.5 -47.5t-48.5 -19.5z" />
    <glyph glyph-name="E" unicode="E" horiz-adv-x="231" 
d="M170 83q6 0 10.5 -4.5t4.5 -10.5q0 -28 -19.5 -48t-48.5 -20q-28 0 -47.5 20t-19.5 48v615q0 28 19.5 47.5t47.5 19.5q29 0 48.5 -19.5t19.5 -47.5q0 -6 -3 -9q-5 -8 -13 -8h-52q-6 0 -10.5 4.5t-4.5 11.5q0 6 4.5 10.5t10.5 4.5h35q-5 10 -14 16.5t-21 6.5
q-15 0 -26 -11t-11 -26v-293h74v11q0 6 4.5 10.5t10.5 4.5t10.5 -4.5t4.5 -10.5v-52q0 -6 -4.5 -10.5t-10.5 -4.5t-10.5 4.5t-4.5 10.5v11h-74v-292q0 -16 11 -26.5t26 -10.5q24 0 34 22h-33q-6 0 -10.5 4.5t-4.5 10.5t4.5 10.5t10.5 4.5h52v0z" />
    <glyph glyph-name="F" unicode="F" horiz-adv-x="226" 
d="M171 668q-7 0 -11 4.5t-4 10.5v37h-75v-326h75v11q0 6 4 10.5t11 4.5q6 0 10.5 -4.5t4.5 -10.5v-52q0 -6 -4.5 -10.5t-10.5 -4.5q-7 0 -11 4.5t-4 10.5v11h-75v-333h10q16 0 16 -16q0 -6 -4.5 -10.5t-11.5 -4.5h-51q-7 0 -11.5 4.5t-4.5 10.5q0 16 16 16h10v704
q0 6 4.5 10.5t11.5 4.5h105q6 0 10.5 -4.5t4.5 -10.5v-52q0 -6 -4.5 -10.5t-10.5 -4.5z" />
    <glyph glyph-name="G" unicode="G" horiz-adv-x="236" 
d="M170 293q15 0 15 -16v-209q0 -28 -19.5 -48t-47.5 -20t-48 20t-20 48v615q0 28 20 47.5t48 19.5t47.5 -19.5t19.5 -47.5q0 -6 -3 -9q-3 -8 -12 -8h-52q-6 0 -10.5 4.5t-4.5 11.5q0 6 4.5 10.5t10.5 4.5h34q-4 10 -13.5 16.5t-20.5 6.5q-16 0 -26.5 -11t-10.5 -26v-615
q0 -16 10.5 -26.5t26.5 -10.5q15 0 26 10.5t11 26.5v194h-22v-37q0 -7 -4.5 -11.5t-10.5 -4.5t-10.5 4.5t-4.5 11.5v51v1q0 7 4.5 11.5t10.5 4.5h52v0z" />
    <glyph glyph-name="H" unicode="H" horiz-adv-x="236" 
d="M197 31q6 0 10.5 -4.5t4.5 -11.5q0 -6 -4.5 -10.5t-10.5 -4.5h-52q-6 0 -10.5 4.5t-4.5 10.5q0 7 4.5 11.5t10.5 4.5h10v329h-74v-329h10q15 0 15 -16q0 -6 -4 -10.5t-11 -4.5h-52q-6 0 -10.5 4.5t-4.5 10.5q0 7 4.5 11.5t10.5 4.5h11v689h-11q-6 0 -10.5 4.5t-4.5 10.5
t4.5 10.5t10.5 4.5h52q7 0 11 -4.5t4 -10.5t-4 -10.5t-11 -4.5h-10v-330h74v330h-10q-6 0 -10.5 4.5t-4.5 10.5t4.5 10.5t10.5 4.5h52q6 0 10.5 -4.5t4.5 -10.5t-4.5 -10.5t-10.5 -4.5h-11v-689h11v0z" />
    <glyph glyph-name="I" unicode="I" horiz-adv-x="150" 
d="M100 31q15 0 15 -16q0 -6 -4 -10.5t-11 -4.5h-51q-7 0 -11.5 4.5t-4.5 10.5q0 16 16 16h10v689h-10q-7 0 -11.5 4.5t-4.5 10.5t4.5 10.5t11.5 4.5h51q7 0 11 -4.5t4 -10.5t-4 -10.5t-11 -4.5h-10v-689h10v0z" />
    <glyph glyph-name="J" unicode="J" horiz-adv-x="246" 
d="M195 750q7 0 11.5 -4.5t4.5 -10.5t-4.5 -10.5t-11.5 -4.5h-10v-652q0 -28 -20 -48t-48 -20t-47.5 20t-19.5 48v2v2q0 15 15 15h51q16 0 16 -15q0 -6 -4.5 -10.5t-11.5 -4.5h-34q3 -11 12.5 -18.5t22.5 -7.5q16 0 26.5 10.5t10.5 26.5v652h-10q-7 0 -11 4.5t-4 10.5
t4 10.5t11 4.5h51v0z" />
    <glyph glyph-name="K" unicode="K" horiz-adv-x="260" 
d="M208 31q16 0 16 -15q0 -6 -4.5 -10.5t-11.5 -4.5h-51q-7 0 -11 4.5t-4 10.5q0 15 15 15h7l-69 345l-2 -8v-337h10q6 0 10.5 -4.5t4.5 -11.5q0 -6 -4.5 -10.5t-10.5 -4.5h-52q-6 0 -10.5 4.5t-4.5 10.5q0 7 4.5 11.5t10.5 4.5h12v688h-12q-6 0 -10.5 4.5t-4.5 10.5
q0 7 4.5 11t10.5 4h52q6 0 10.5 -4t4.5 -11q0 -6 -4.5 -10.5t-10.5 -4.5h-10v-241l69 242h-5q-7 0 -11 4.5t-4 10.5t4 10.5t11 4.5h51q7 0 11.5 -4.5t4.5 -10.5t-4.5 -10.5t-11.5 -4.5h-14l-80 -280l81 -409h13v0z" />
    <glyph glyph-name="L" unicode="L" horiz-adv-x="240" 
d="M186 83q16 0 16 -16v-51q0 -15 -16 -15v-1h-52q-28 0 -48 20t-20 48v652h-10q-7 0 -11 4.5t-4 10.5t4 10.5t11 4.5h51q7 0 11.5 -4.5t4.5 -10.5t-4.5 -10.5t-11.5 -4.5h-10v-652q0 -16 11 -26.5t26 -10.5h37v36q0 7 4.5 11.5t10.5 4.5z" />
    <glyph glyph-name="M" unicode="M" horiz-adv-x="359" 
d="M309 31q6 0 10.5 -4.5t4.5 -11.5q0 -6 -4.5 -10.5t-10.5 -4.5h-52q-6 0 -10.5 4.5t-4.5 10.5q0 7 4.5 11.5t10.5 4.5h11v644v8q0 15 -11 26t-26 11q-16 0 -27 -11t-11 -26v-652h11q6 0 10.5 -4.5t4.5 -11.5q0 -6 -4.5 -10.5t-10.5 -4.5h-52q-6 0 -10.5 4.5t-4.5 10.5
q0 7 4.5 11.5t10.5 4.5h11v386v266q0 15 -11 26t-26 11q-16 0 -26.5 -11t-10.5 -26v-652h10q16 0 16 -16q0 -6 -4.5 -10.5t-11.5 -4.5h-51q-7 0 -11 4.5t-4 10.5q0 16 15 16h10v652q0 28 20 47.5t48 19.5q33 0 52 -25q20 25 53 25q28 0 47.5 -19.5t19.5 -47.5v-652h11v0z
" />
    <glyph glyph-name="N" unicode="N" horiz-adv-x="255" 
d="M205 31q16 0 16 -16q0 -6 -4.5 -10.5t-11.5 -4.5h-51q-7 0 -11 4.5t-4 10.5q0 16 15 16h10v342l-74 255v-597h11q6 0 10.5 -4.5t4.5 -11.5q0 -6 -4.5 -10.5t-10.5 -4.5h-52q-6 0 -10.5 4.5t-4.5 10.5q0 7 4.5 11.5t10.5 4.5h11v689h-11q-6 0 -10.5 4.5t-4.5 10.5
t4.5 10.5t10.5 4.5h52q6 0 10.5 -4.5t4.5 -10.5t-4.5 -10.5t-10.5 -4.5h-6l69 -238v238h-10q-7 0 -11 4.5t-4 10.5t4 10.5t11 4.5h51q7 0 11.5 -4.5t4.5 -10.5t-4.5 -10.5t-11.5 -4.5h-10v-689h10v0z" />
    <glyph glyph-name="O" unicode="O" horiz-adv-x="238" 
d="M118 -1q-28 0 -48 19.5t-20 48.5v615q0 28 20 47.5t48 19.5t48 -19.5t20 -47.5v-615q0 -29 -20 -48.5t-48 -19.5zM118 719q-16 0 -26.5 -11t-10.5 -26v-615q0 -16 10.5 -27t26.5 -11q15 0 26 11t11 27v615q0 15 -11 26t-26 11z" />
    <glyph glyph-name="P" unicode="P" horiz-adv-x="231" 
d="M123 750q28 0 47.5 -19.5t19.5 -47.5v-106v-149v-11q0 -5 -3 -8q-6 -21 -23.5 -35t-40.5 -14q-21 0 -38 11v-340h11q6 0 10.5 -4.5t4.5 -11.5q0 -6 -4.5 -10.5t-10.5 -4.5h-52q-6 0 -10.5 4.5t-4.5 10.5q0 7 4.5 11.5t10.5 4.5h11v397v141v114q0 28 19.5 47.5t48.5 19.5z
M123 390q15 0 26 11t11 27v149v106q0 15 -11 26t-26 11q-16 0 -27 -11t-11 -26v-114v-141q0 -16 11 -27t27 -11z" />
    <glyph glyph-name="Q" unicode="Q" horiz-adv-x="239" 
d="M186 68q0 -20 -11 -36l6 -6q5 -5 5 -11t-5 -10q-5 -5 -11 -5q-5 0 -10 5l-6 5q-18 -10 -36 -10q-28 0 -48 19.5t-20 48.5v615q0 28 20 47.5t48 19.5t48 -19.5t20 -47.5v-615zM153 55q2 8 2 13v615q0 15 -10.5 26t-26.5 11q-15 0 -26 -11t-11 -26v-615q0 -16 11 -27
t26 -11q7 0 13 3l-24 24q-5 5 -5 10.5t5 10.5t11 5t11 -5z" />
    <glyph glyph-name="R" unicode="R" horiz-adv-x="253" 
d="M206 31q6 0 10.5 -4.5t4.5 -11.5q0 -6 -4.5 -10.5t-10.5 -4.5h-52q-6 0 -10.5 4.5t-4.5 10.5q0 7 4.5 11.5t10.5 4.5h9l-43 324h-30v-324h11q6 0 10.5 -4.5t4.5 -11.5q0 -6 -4.5 -10.5t-10.5 -4.5h-52q-6 0 -10.5 4.5t-4.5 10.5q0 7 4.5 11.5t10.5 4.5h11v652
q0 28 19.5 47.5t48.5 19.5q28 0 47.5 -19.5t19.5 -47.5v-70v-196q0 -20 -10.5 -36t-27.5 -25q-2 -1 -7 -1l43 -324h13zM90 385h56q19 11 19 32v196v70q0 15 -11 26t-26 11q-16 0 -27 -11t-11 -26v-298z" />
    <glyph glyph-name="S" unicode="S" horiz-adv-x="210" 
d="M93 681q0 7 4.5 11t10.5 4h34q-10 23 -35 23q-15 0 -25.5 -10.5t-11.5 -25.5l105 -613v-3q0 -28 -19.5 -47.5t-48.5 -19.5q-28 0 -47.5 19.5t-19.5 47.5v1q0 6 4.5 10.5t10.5 4.5h52q6 0 10.5 -4.5t4.5 -10.5q0 -7 -4.5 -11.5t-10.5 -4.5h-34q10 -22 34 -22
q16 0 26.5 10.5t11.5 25.5l-105 614v2q0 28 19.5 48t47.5 20q29 0 48.5 -20t19.5 -48v-1q0 -6 -4.5 -10.5t-10.5 -4.5h-52q-6 0 -10.5 4.5t-4.5 10.5z" />
    <glyph glyph-name="T" unicode="T" horiz-adv-x="191" 
d="M164 750q6 0 10.5 -4.5t4.5 -10.5q0 -7 -4.5 -11t-10.5 -4h-51v-690h10q15 0 15 -15q0 -6 -4 -10.5t-11 -4.5h-51q-7 0 -11.5 4.5t-4.5 10.5q0 15 16 15h10v690h-53q-15 0 -15 15q0 6 4 10.5t11 4.5h135v0z" />
    <glyph glyph-name="U" unicode="U" horiz-adv-x="250" 
d="M203 750q6 0 10.5 -4.5t4.5 -10.5q0 -7 -4.5 -11.5t-10.5 -4.5h-11v-652q0 -28 -19.5 -47.5t-47.5 -19.5t-48 19.5t-20 47.5v652h-10q-16 0 -16 16q0 6 4.5 10.5t11.5 4.5h51q7 0 11 -4.5t4 -10.5q0 -16 -15 -16h-10v-652q0 -15 10.5 -26t26.5 -11q15 0 26 11t11 26v652
h-11q-6 0 -10.5 4.5t-4.5 11.5q0 6 4.5 10.5t10.5 4.5h52v0z" />
    <glyph glyph-name="V" unicode="V" horiz-adv-x="260" 
d="M212 750q6 0 10.5 -4.5t4.5 -10.5q0 -7 -4.5 -11.5t-10.5 -4.5h-12l-50 -689h10q6 0 10.5 -4.5t4.5 -10.5t-4.5 -10.5t-10.5 -4.5h-52q-6 0 -10.5 4.5t-4.5 10.5t4.5 10.5t10.5 4.5h9l-50 689h-11q-16 0 -16 16q0 6 4.5 10.5t11.5 4.5h51q7 0 11 -4.5t4 -10.5
q0 -16 -15 -16h-9l36 -495l36 495h-10q-6 0 -10.5 4.5t-4.5 11.5q0 6 4.5 10.5t10.5 4.5h52v0z" />
    <glyph glyph-name="W" unicode="W" horiz-adv-x="376" 
d="M316 750q7 0 11.5 -4.5t4.5 -10.5q0 -16 -16 -16h-10v-652q0 -28 -19.5 -47.5t-48.5 -19.5q-33 0 -52 25q-19 -25 -52 -25q-29 0 -48.5 19.5t-19.5 47.5v652h-11q-6 0 -10.5 4.5t-4.5 11.5q0 6 4.5 10.5t10.5 4.5h52q6 0 10.5 -4.5t4.5 -10.5q0 -7 -4.5 -11.5t-10.5 -4.5
h-11v-652q0 -15 11 -26t27 -11q15 0 26 11t11 26v652h-11q-6 0 -10.5 4.5t-4.5 11.5q0 6 4.5 10.5t10.5 4.5h52q6 0 10.5 -4.5t4.5 -10.5q0 -7 -4.5 -11.5t-10.5 -4.5h-11v-652q0 -15 11 -26t26 -11q16 0 26.5 11t10.5 26v652h-10q-6 0 -10.5 4.5t-4.5 11.5q0 6 4.5 10.5
t10.5 4.5h51v0z" />
    <glyph glyph-name="X" unicode="X" horiz-adv-x="275" 
d="M216 30q6 0 10.5 -4.5t4.5 -10.5t-4.5 -10.5t-10.5 -4.5h-52q-6 0 -10.5 4.5t-4.5 10.5t4.5 10.5t10.5 4.5h9l-35 242l-35 -242h9q6 0 10.5 -4.5t4.5 -10.5t-4.5 -10.5t-10.5 -4.5h-52q-6 0 -10.5 4.5t-4.5 10.5t4.5 10.5t10.5 4.5h12l51 347l-50 343h-13q-6 0 -10.5 4
t-4.5 11q0 6 4.5 10.5t10.5 4.5h52q6 0 10.5 -4.5t4.5 -10.5q0 -7 -4.5 -11t-10.5 -4h-9l35 -238l35 238h-9q-6 0 -10.5 4t-4.5 11q0 6 4.5 10.5t10.5 4.5h52q6 0 10.5 -4.5t4.5 -10.5q0 -7 -4.5 -11t-10.5 -4h-13l-50 -343l51 -347h12v0z" />
    <glyph glyph-name="Y" unicode="Y" horiz-adv-x="267" 
d="M211 750q6 0 10.5 -4.5t4.5 -10.5q0 -7 -4.5 -11t-10.5 -4h-12l-51 -354v-336h11q6 0 10.5 -4.5t4.5 -10.5t-4.5 -10.5t-10.5 -4.5h-52q-6 0 -10.5 4.5t-4.5 10.5t4.5 10.5t10.5 4.5h11v336l-51 354h-12q-6 0 -10.5 4t-4.5 11q0 6 4.5 10.5t10.5 4.5h52q6 0 10.5 -4.5
t4.5 -10.5q0 -7 -4.5 -11t-10.5 -4h-9l35 -247l35 247h-9q-6 0 -10.5 4t-4.5 11q0 6 4.5 10.5t10.5 4.5h52v0z" />
    <glyph glyph-name="Z" unicode="Z" horiz-adv-x="236" 
d="M170 82q6 0 10.5 -4.5t4.5 -10.5v-52q0 -6 -4.5 -10.5t-10.5 -4.5h-105q-7 0 -12 5q-5 6 -3 12l102 703h-72v-37q0 -6 -4.5 -10.5t-10.5 -4.5q-7 0 -11 4.5t-4 10.5v52q0 6 4 10.5t11 4.5h105q6 0 11 -5q4 -5 4 -12l-103 -703h72v37q0 6 4.5 10.5t11.5 4.5z" />
    <glyph glyph-name="zero" unicode="0" horiz-adv-x="236" 
d="M118 0q-29 0 -48.5 19.5t-19.5 48.5v614q0 29 19.5 48.5t48.5 19.5q28 0 47.5 -19.5t19.5 -48.5v-614q0 -29 -19.5 -48.5t-47.5 -19.5zM118 720q-16 0 -27 -11t-11 -27v-614q0 -16 11 -27t27 -11q15 0 26 11t11 27v614q0 16 -11 27t-26 11z" />
    <glyph glyph-name="one" unicode="1" 
d="M144 30q16 0 16 -15q0 -6 -4.5 -10.5t-11.5 -4.5h-25h-26q-7 0 -11 4.5t-4 10.5q0 15 15 15h10v668l-26 -26q-5 -5 -11 -5t-10 5q-5 5 -5 10.5t5 10.5l52 52q6 8 16 4q10 -5 10 -14v-705h10v0z" />
    <glyph glyph-name="two" unicode="2" horiz-adv-x="240" 
d="M195 83q6 0 10.5 -4.5t4.5 -11.5q0 -6 -4.5 -10.5t-10.5 -4.5h-12q-5 -23 -23.5 -37.5t-42.5 -14.5h-52q-8 0 -11 5q-5 7 -4 12l105 666q-1 15 -11.5 26t-26.5 11q-12 0 -21 -7t-13 -18h34q6 0 10.5 -4.5t4.5 -11.5q0 -6 -4.5 -10.5t-10.5 -4.5h-52q-6 0 -10.5 4.5
t-4.5 10.5v2v1q0 29 19.5 48.5t47.5 19.5q29 0 48.5 -19.5t19.5 -48.5v-2l-102 -650h34q24 0 34 22h-8q-6 0 -10.5 4.5t-4.5 10.5q0 7 4.5 11.5t10.5 4.5h52v0z" />
    <glyph glyph-name="three" unicode="3" horiz-adv-x="240" 
d="M185 506q0 -16 -7 -29.5t-18 -22.5q11 -10 18 -23.5t7 -29.5v-334q0 -28 -19.5 -47.5t-48.5 -19.5q-28 0 -47.5 19.5t-19.5 47.5q0 7 4.5 11.5t10.5 4.5h1h51q16 0 16 -16q0 -6 -4.5 -10.5t-11.5 -4.5h-33q8 -22 33 -22q16 0 27 11t11 26v334q0 16 -11 26.5t-27 10.5
q-6 0 -10.5 4.5t-4.5 11.5q0 6 4.5 10.5t10.5 4.5q16 0 27 10.5t11 26.5v176q0 16 -11 27t-27 11q-12 0 -21 -7t-13 -18h34q16 0 16 -16q0 -6 -4.5 -10.5t-11.5 -4.5h-51q-13 0 -15 13q-1 2 -1 5q0 29 19.5 48.5t47.5 19.5q29 0 48.5 -19.5t19.5 -48.5v-176v0z" />
    <glyph glyph-name="four" unicode="4" horiz-adv-x="250" 
d="M197 30q6 0 10.5 -4t4.5 -11q0 -6 -4.5 -10.5t-10.5 -4.5h-26h-26q-6 0 -10.5 4.5t-4.5 10.5q0 7 4.5 11t10.5 4h11v330h-90q-8 0 -12 6q-5 6 -3 13l99 341h-5q-6 0 -10.5 4t-4.5 11q0 6 4.5 10.5t10.5 4.5h52q6 0 10.5 -4.5t4.5 -10.5q0 -7 -4.5 -11t-10.5 -4h-11v-690
h11zM156 390v238l-70 -238h70z" />
    <glyph glyph-name="five" unicode="5" horiz-adv-x="240" 
d="M170 668q-6 0 -10.5 4.5t-4.5 10.5v37h-74v-330h37q28 0 48 -19.5t20 -47.5v-256q0 -28 -20 -47.5t-48 -19.5t-48 19.5t-20 47.5q0 16 16 16h51q15 0 15 -16q0 -6 -4 -10.5t-11 -4.5h-33q10 -22 34 -22q16 0 26.5 11t10.5 26v256q0 15 -11 26t-26 11h-52q-7 0 -11.5 4.5
t-4.5 10.5v360q0 6 4.5 10.5t11.5 4.5h104q7 0 11.5 -4.5t4.5 -10.5v-52q0 -6 -4.5 -10.5t-11.5 -4.5z" />
    <glyph glyph-name="six" unicode="6" 
d="M117 390q28 0 48 -19.5t20 -47.5v-256q0 -28 -20 -47.5t-48 -19.5t-47.5 19.5t-19.5 47.5v615q0 29 19.5 48.5t47.5 19.5t48 -19.5t20 -48.5q0 -2 -0.5 -2.5t-0.5 -2.5q-2 -13 -15 -13h-52q-6 0 -10.5 4.5t-4.5 10.5q0 7 4.5 11.5t10.5 4.5h35q-4 11 -13.5 18t-21.5 7
q-15 0 -26 -11t-11 -27v-303q17 11 37 11zM154 323q0 15 -10.5 26t-26.5 11q-15 0 -26 -11t-11 -26v-256q0 -15 11 -26t26 -11q16 0 26.5 11t10.5 26v256z" />
    <glyph glyph-name="seven" unicode="7" horiz-adv-x="256" 
d="M207 745q4 -5 4 -12l-103 -703h9q6 0 10.5 -4t4.5 -11q0 -6 -4.5 -10.5t-10.5 -4.5h-26h-26q-6 0 -10.5 4.5t-4.5 10.5q0 7 4.5 11t10.5 4h13l100 690h-72v-37q0 -6 -4.5 -10.5t-10.5 -4.5q-7 0 -11 4.5t-4 10.5v52q0 6 4 10.5t11 4.5h104q7 0 12 -5z" />
    <glyph glyph-name="eight" unicode="8" horiz-adv-x="238" 
d="M185 427q0 -16 -7 -29.5t-18 -22.5q11 -9 18 -22.5t7 -29.5v-255q0 -29 -19.5 -48.5t-48.5 -19.5q-28 0 -47.5 19.5t-19.5 48.5v255q0 16 7 29.5t18 22.5q-11 9 -18 22.5t-7 29.5v255q0 29 19.5 48.5t47.5 19.5q29 0 48.5 -19.5t19.5 -48.5v-255zM80 427q0 -15 11 -26
t26 -11q16 0 27 11t11 26v255q0 16 -11 27t-27 11q-15 0 -26 -11t-11 -27v-255zM155 323q0 15 -11 26t-27 11q-15 0 -26 -11t-11 -26v-255q0 -16 11 -27t26 -11q16 0 27 11t11 27v255z" />
    <glyph glyph-name="nine" unicode="9" 
d="M118 750q28 0 48 -19.5t20 -48.5v-615q0 -28 -20 -47.5t-48 -19.5t-48 19.5t-20 47.5q0 16 16 16h1h1h51q16 0 16 -16q0 -6 -4.5 -10.5t-11.5 -4.5h-35q10 -22 34 -22q15 0 26 11t11 26v304q-17 -11 -37 -11q-28 0 -48 19.5t-20 47.5v255q0 29 20 48.5t48 19.5zM155 682
q0 16 -11 27t-26 11q-16 0 -26.5 -11t-10.5 -27v-255q0 -15 10.5 -26t26.5 -11q15 0 26 11t11 26v255z" />
    <glyph glyph-name="a" unicode="a" horiz-adv-x="237" 
d="M118 390q29 0 48.5 -20t19.5 -48v-255q0 -28 -19.5 -47.5t-48.5 -19.5q-28 0 -47.5 19.5t-19.5 47.5v75q0 29 19.5 48.5t47.5 19.5q21 0 37 -11v123q0 16 -10.5 26.5t-26.5 10.5q-24 0 -34 -22h34q6 0 10.5 -4t4.5 -11q0 -6 -4.5 -10.5t-10.5 -4.5h-52q-6 0 -10.5 4.5
t-4.5 10.5q0 28 19.5 48t47.5 20zM155 142q0 16 -10.5 26.5t-26.5 10.5q-15 0 -26 -10.5t-11 -26.5v-75q0 -15 11 -26t26 -11q16 0 26.5 11t10.5 26v75z" />
    <glyph glyph-name="b" unicode="b" horiz-adv-x="237" 
d="M117 390q29 0 48.5 -20t19.5 -48v-255q0 -28 -19.5 -47.5t-48.5 -19.5q-28 0 -47.5 19.5t-19.5 47.5v652h-11q-6 0 -10.5 4.5t-4.5 10.5q0 7 4.5 11.5t10.5 4.5h52q6 0 10.5 -4.5t4.5 -11.5q0 -6 -4.5 -10.5t-10.5 -4.5h-11v-340q17 11 37 11zM155 322q0 16 -11 26.5
t-27 10.5q-15 0 -26 -10.5t-11 -26.5v-255q0 -15 11 -26t26 -11q16 0 27 11t11 26v255z" />
    <glyph glyph-name="c" unicode="c" horiz-adv-x="236" 
d="M169 83q7 0 11 -4.5t4 -10.5v-1q0 -28 -19.5 -47.5t-47.5 -19.5t-48 19.5t-20 47.5v255q0 28 20 48t48 20t47.5 -20t19.5 -48q0 -6 -4 -10.5t-11 -4.5h-51q-7 0 -11.5 4.5t-4.5 10.5q0 15 16 15h33q-10 22 -34 22q-16 0 -26.5 -10.5t-10.5 -26.5v-255q0 -15 10.5 -26
t26.5 -11q24 0 34 23h-33q-16 0 -16 15q0 6 4.5 10.5t11.5 4.5h51v0z" />
    <glyph glyph-name="d" unicode="d" horiz-adv-x="237" 
d="M196 750q15 0 15 -16q0 -6 -4 -10.5t-11 -4.5h-10v-652q0 -28 -20 -47.5t-48 -19.5t-48 19.5t-20 47.5v255q0 28 20 48t48 20q20 0 37 -11v340h-10q-7 0 -11.5 4.5t-4.5 10.5q0 16 16 16h51zM155 322q0 16 -11 26.5t-26 10.5q-16 0 -26.5 -10.5t-10.5 -26.5v-255
q0 -15 10.5 -26t26.5 -11q15 0 26 11t11 26v255z" />
    <glyph glyph-name="e" unicode="e" horiz-adv-x="236" 
d="M81 179v-112q0 -15 11 -26t26 -11q11 0 20.5 6t13.5 17h-33q-6 0 -10.5 4t-4.5 11q0 6 4.5 10.5t10.5 4.5h52q6 0 10.5 -4.5t4.5 -10.5v-1q0 -28 -20 -47.5t-48 -19.5t-47.5 19.5t-19.5 47.5v255q0 28 19.5 48t47.5 20t48 -20t20 -48v-127q0 -7 -4.5 -11.5t-10.5 -4.5
h-90zM118 359q-15 0 -26 -10.5t-11 -26.5v-112h74v112q0 16 -10.5 26.5t-26.5 10.5z" />
    <glyph glyph-name="f" unicode="f" horiz-adv-x="210" 
d="M169 415q15 0 15 -15v-51q0 -16 -15 -16q-6 0 -10.5 4.5t-4.5 11.5v10h-74v-292q0 -11 6 -20t15 -14v33q0 16 16 16q6 0 10.5 -4.5t4.5 -11.5v-49v-2q0 -7 -4.5 -11t-10.5 -4h-1q-28 0 -47.5 19.5t-19.5 47.5v615q0 28 20 48t48 20t47.5 -20t19.5 -48q0 -4 -1 -6
q-3 -12 -15 -12h-51q-15 0 -15 16q0 6 4 10.5t11 4.5h35q-5 11 -14 17.5t-21 6.5q-16 0 -26.5 -11t-10.5 -26v-292h74v10q0 7 4.5 11t10.5 4z" />
    <glyph glyph-name="g" unicode="g" 
d="M117 390q28 0 47.5 -19.5t19.5 -48.5v-221v-34v-180q0 -28 -19.5 -47.5t-47.5 -19.5t-48 19.5t-20 47.5v38v1q0 15 16 15h51q15 0 15 -15q0 -6 -4 -10.5t-11 -4.5h-36v-24q0 -15 10.5 -26t26.5 -11q15 0 26 11t11 26v124q-17 -11 -37 -11q-28 0 -48 19.5t-20 47.5v255
q0 29 20 48.5t48 19.5zM117 30q15 0 26 11t11 26v34v221q0 16 -11 26.5t-26 10.5q-16 0 -26.5 -10.5t-10.5 -26.5v-255q0 -15 10.5 -26t26.5 -11z" />
    <glyph glyph-name="h" unicode="h" horiz-adv-x="237" 
d="M196 30q6 0 10.5 -4.5t4.5 -10.5q0 -7 -4.5 -11t-10.5 -4h-52q-6 0 -10.5 4t-4.5 11q0 6 4.5 10.5t10.5 4.5h11v292q0 16 -11 26.5t-27 10.5q-15 0 -26 -10.5t-11 -26.5v-47v-245h11q6 0 10.5 -4.5t4.5 -10.5q0 -7 -4.5 -11t-10.5 -4h-52q-6 0 -10.5 4t-4.5 11
q0 6 4.5 10.5t10.5 4.5h11v245v47v397h-11q-6 0 -10.5 4.5t-4.5 10.5q0 7 4.5 11.5t10.5 4.5h52q6 0 10.5 -4.5t4.5 -11.5q0 -6 -4.5 -10.5t-10.5 -4.5h-11v-340q17 11 37 11q29 0 48.5 -20t19.5 -48v-292h11v0z" />
    <glyph glyph-name="i" unicode="i" horiz-adv-x="130" 
d="M91 30q6 0 10.5 -4.5t4.5 -10.5q0 -7 -4.5 -11t-10.5 -4h-52q-6 0 -10.5 4t-4.5 11q0 6 4.5 10.5t10.5 4.5h11v329h-11q-6 0 -10.5 4.5t-4.5 11.5q0 6 4.5 10.5t10.5 4.5h52q6 0 10.5 -4.5t4.5 -10.5q0 -7 -4.5 -11.5t-10.5 -4.5h-11v-329h11zM65 437q-6 0 -10.5 4.5
t-4.5 10.5v52q0 6 4.5 10.5t10.5 4.5q7 0 11 -4.5t4 -10.5v-52q0 -6 -4 -10.5t-11 -4.5z" />
    <glyph glyph-name="j" unicode="j" horiz-adv-x="185" 
d="M146 391q6 0 10.5 -4.5t4.5 -10.5q0 -7 -4.5 -11.5t-10.5 -4.5h-11v-472q0 -28 -19.5 -47.5t-47.5 -19.5q-29 0 -48.5 19.5t-19.5 47.5v38v1q0 7 4.5 11t10.5 4h52q6 0 10.5 -4t4.5 -11q0 -6 -4.5 -10.5t-10.5 -4.5h-37v-24q0 -15 11 -26t27 -11q15 0 26 11t11 26v472
h-11q-6 0 -10.5 4.5t-4.5 11.5q0 6 4.5 10.5t10.5 4.5h52zM120 438q-7 0 -11 4.5t-4 10.5v52q0 6 4 10.5t11 4.5q6 0 10.5 -4.5t4.5 -10.5v-52q0 -6 -4.5 -10.5t-10.5 -4.5z" />
    <glyph glyph-name="l" unicode="l" horiz-adv-x="160" 
d="M117 30q7 0 11 -4.5t4 -10.5q0 -15 -15 -15q-28 0 -47.5 19.5t-19.5 47.5v652h-11q-6 0 -10.5 4.5t-4.5 10.5q0 7 4.5 11.5t10.5 4.5h52q6 0 10.5 -4.5t4.5 -11.5q0 -6 -4.5 -10.5t-10.5 -4.5h-11v-652q0 -15 11 -26t26 -11z" />
    <glyph glyph-name="k" unicode="k" horiz-adv-x="234" 
d="M196 30q6 0 10.5 -4.5t4.5 -10.5q0 -7 -4.5 -11t-10.5 -4h-52q-6 0 -10.5 4t-4.5 11q0 6 4.5 10.5t10.5 4.5h5l-58 178l-11 -17v-161h11q6 0 10.5 -4.5t4.5 -10.5q0 -7 -4.5 -11t-10.5 -4h-52q-6 0 -10.5 4t-4.5 11q0 6 4.5 10.5t10.5 4.5h11v689h-11q-6 0 -10.5 4.5
t-4.5 10.5q0 7 4.5 11.5t10.5 4.5h52q6 0 10.5 -4.5t4.5 -11.5q0 -6 -4.5 -10.5t-10.5 -4.5h-11v-468l63 108q-14 2 -14 16q0 6 4.5 10.5t10.5 4.5h52q6 0 10.5 -4.5t4.5 -10.5q0 -7 -4.5 -11.5t-10.5 -4.5h-17l-68 -116l70 -213h15v0z" />
    <glyph glyph-name="m" unicode="m" horiz-adv-x="340" 
d="M300 30q7 0 11.5 -4.5t4.5 -10.5q0 -15 -16 -15h-25h-1h-25q-15 0 -15 15q0 6 4 10.5t11 4.5h10v292q0 16 -10.5 26.5t-26.5 10.5q-15 0 -26 -10.5t-11 -26.5v-292h11q6 0 10.5 -4.5t4.5 -10.5q0 -7 -4.5 -11t-10.5 -4h-26h-26q-6 0 -10.5 4t-4.5 11q0 6 4.5 10.5
t10.5 4.5h11v292q0 16 -11 26.5t-26 10.5q-16 0 -27 -10.5t-11 -26.5v-292h11q6 0 10.5 -4.5t4.5 -10.5q0 -7 -4.5 -11t-10.5 -4h-26h-26q-6 0 -10.5 4t-4.5 11q0 6 4.5 10.5t10.5 4.5h11v292q0 28 19.5 48t48.5 20q16 0 29 -7t23 -18q9 11 22.5 18t29.5 7q29 0 48.5 -20
t19.5 -48v-292h10v0z" />
    <glyph glyph-name="n" unicode="n" horiz-adv-x="236" 
d="M196 30q7 0 11.5 -4.5t4.5 -10.5q0 -15 -16 -15h-51q-15 0 -15 15q0 6 4 10.5t11 4.5h10v292q0 16 -10.5 26.5t-26.5 10.5q-15 0 -26 -10.5t-11 -26.5v-292h11q6 0 10.5 -4.5t4.5 -10.5q0 -7 -4.5 -11t-10.5 -4h-52q-6 0 -10.5 4t-4.5 11q0 6 4.5 10.5t10.5 4.5h11v292
q0 28 19.5 48t47.5 20t48 -20t20 -48v-292h10v0z" />
    <glyph glyph-name="o" unicode="o" 
d="M118 0q-29 0 -48.5 19.5t-19.5 47.5v255q0 28 19.5 48t48.5 20q28 0 47.5 -20t19.5 -48v-255q0 -28 -19.5 -47.5t-47.5 -19.5zM118 359q-16 0 -27 -10.5t-11 -26.5v-255q0 -15 11 -26t27 -11q15 0 26 11t11 26v255q0 16 -11 26.5t-26 10.5z" />
    <glyph glyph-name="p" unicode="p" 
d="M118 390q28 0 47.5 -19.5t19.5 -48.5v-255q0 -28 -19.5 -47.5t-47.5 -19.5q-21 0 -37 11v-161h10q7 0 11 -4.5t4 -10.5t-4 -10.5t-11 -4.5h-51q-7 0 -11.5 4.5t-4.5 10.5t4.5 10.5t11.5 4.5h10v472q0 29 19.5 48.5t48.5 19.5zM155 322q0 16 -11 26.5t-26 10.5
q-16 0 -26.5 -10.5t-10.5 -26.5v-255q0 -15 10.5 -26t26.5 -11q15 0 26 11t11 26v255z" />
    <glyph glyph-name="q" unicode="q" 
d="M195 -150q7 0 11.5 -4.5t4.5 -10.5t-4.5 -10.5t-11.5 -4.5h-51q-7 0 -11 4.5t-4 10.5t4 10.5t11 4.5h10v161q-16 -11 -37 -11q-28 0 -47.5 19.5t-19.5 47.5v255q0 29 19.5 48.5t47.5 19.5q29 0 48.5 -19.5t19.5 -48.5v-472h10zM117 30q16 0 26.5 11t10.5 26v255
q0 16 -10.5 26.5t-26.5 10.5q-15 0 -26 -10.5t-11 -26.5v-255q0 -15 11 -26t26 -11z" />
    <glyph glyph-name="r" unicode="r" horiz-adv-x="220" 
d="M117 390q28 0 47.5 -20t19.5 -48q0 -6 -4 -10.5t-11 -4.5h-1h-51q-7 0 -11 4.5t-4 10.5q0 15 15 15h34q-10 22 -34 22q-16 0 -26.5 -10.5t-10.5 -26.5v-292h10q7 0 11 -4.5t4 -10.5q0 -15 -15 -15h-25h-1h-25q-16 0 -16 15q0 6 4.5 10.5t11.5 4.5h10v292q0 28 20 48
t48 20z" />
    <glyph glyph-name="s" unicode="s" horiz-adv-x="201" 
d="M166 73q1 -2 1 -6q0 -28 -19.5 -47.5t-48.5 -19.5q-28 0 -47.5 19.5t-19.5 47.5v1q0 7 4.5 11t10.5 4h52q6 0 10.5 -4t4.5 -11q0 -6 -4.5 -10.5t-10.5 -4.5h-34q10 -23 34 -23q15 0 25.5 10t11.5 24l-103 252q-1 2 -1 6q0 28 19.5 48t47.5 20q29 0 48.5 -20t19.5 -48
q0 -6 -4.5 -10.5t-10.5 -4.5h-52q-6 0 -10.5 4.5t-4.5 10.5q0 7 4.5 11t10.5 4h33q-10 22 -34 22q-14 0 -24.5 -10t-12.5 -24z" />
    <glyph glyph-name="t" unicode="t" horiz-adv-x="202" 
d="M154 82q6 0 10.5 -4.5t4.5 -11.5v-51q0 -7 -4.5 -11t-10.5 -4h-2h-2q-28 0 -47.5 19.5t-19.5 47.5v178v77v37h-37q-16 0 -16 16q0 6 4.5 10.5t11.5 4.5h37v329h-11q-6 0 -10.5 4.5t-4.5 10.5q0 7 4.5 11.5t10.5 4.5h52q6 0 10.5 -4.5t4.5 -11.5q0 -6 -4.5 -10.5
t-10.5 -4.5h-11v-329h37q7 0 11.5 -4.5t4.5 -10.5q0 -16 -16 -16h-37v-37v-77v-178q0 -12 7 -21.5t18 -13.5v34q0 16 16 16z" />
    <glyph glyph-name="u" unicode="u" 
d="M196 390q6 0 10.5 -4.5t4.5 -10.5q0 -7 -4.5 -11.5t-10.5 -4.5h-11v-292q0 -28 -19.5 -47.5t-47.5 -19.5q-29 0 -48.5 19.5t-19.5 47.5v292h-11q-6 0 -10.5 4.5t-4.5 11.5q0 6 4.5 10.5t10.5 4.5h52q6 0 10.5 -4.5t4.5 -10.5q0 -7 -4.5 -11.5t-10.5 -4.5h-11v-292
q0 -15 11 -26t27 -11q15 0 26 11t11 26v292h-11q-6 0 -10.5 4.5t-4.5 11.5q0 6 4.5 10.5t10.5 4.5h52v0z" />
    <glyph glyph-name="v" unicode="v" horiz-adv-x="236" 
d="M196 390q7 0 11 -4.5t4 -10.5q0 -16 -15 -16h-12l-48 -329h8q6 0 10.5 -4.5t4.5 -10.5q0 -7 -4.5 -11t-10.5 -4h-52q-6 0 -10.5 4t-4.5 11q0 6 4.5 10.5t10.5 4.5h8l-48 329h-12q-15 0 -15 16q0 6 4 10.5t11 4.5h51q7 0 11.5 -4.5t4.5 -10.5q0 -16 -16 -16h-8l35 -239
l35 239h-8q-16 0 -16 16q0 6 4.5 10.5t11.5 4.5h51v0z" />
    <glyph glyph-name="w" unicode="w" horiz-adv-x="340" 
d="M301 390q6 0 10.5 -4.5t4.5 -10.5q0 -7 -4.5 -11.5t-10.5 -4.5h-11v-292q0 -28 -19.5 -47.5t-47.5 -19.5q-32 0 -53 24q-19 -24 -52 -24q-28 0 -48 19.5t-20 47.5v292h-10q-15 0 -15 16q0 6 4 10.5t11 4.5h51q7 0 11.5 -4.5t4.5 -10.5q0 -16 -16 -16h-10v-292
q0 -15 10.5 -26t26.5 -11q15 0 26 11t11 26v292h-10q-16 0 -16 16q0 6 4.5 10.5t11.5 4.5h51q7 0 11 -4.5t4 -10.5q0 -16 -15 -16h-10v-292q0 -15 10.5 -26t26.5 -11q15 0 26 11t11 26v292h-11q-6 0 -10.5 4.5t-4.5 11.5q0 6 4.5 10.5t10.5 4.5h52v0z" />
    <glyph glyph-name="x" unicode="x" horiz-adv-x="238" 
d="M197 30q7 0 11.5 -4.5t4.5 -10.5q0 -15 -16 -15h-51q-15 0 -15 15q0 6 4 10.5t11 4.5h5l-32 110l-32 -110h6q6 0 10.5 -4.5t4.5 -10.5q0 -7 -4.5 -11t-10.5 -4h-52q-6 0 -10.5 4t-4.5 11q0 6 4.5 10.5t10.5 4.5h14l48 165l-48 164h-14q-6 0 -10.5 4.5t-4.5 11.5
q0 6 4.5 10.5t10.5 4.5h52q6 0 10.5 -4.5t4.5 -10.5q0 -7 -4.5 -11.5t-10.5 -4.5h-6l32 -110l32 110h-5q-15 0 -15 16q0 6 4 10.5t11 4.5h51q7 0 11.5 -4.5t4.5 -10.5q0 -16 -16 -16h-14l-48 -164l48 -165h14v0z" />
    <glyph glyph-name="y" unicode="y" 
d="M196 390q6 0 10.5 -4.5t4.5 -10.5q0 -7 -4.5 -11.5t-10.5 -4.5h-11v-217v-75v-180q0 -28 -19.5 -47.5t-47.5 -19.5t-48 19.5t-20 47.5v38q0 6 4.5 10.5t10.5 4.5h52q6 0 10.5 -4.5t4.5 -10.5q0 -7 -4.5 -11.5t-10.5 -4.5h-36v-22q0 -15 10.5 -26t26.5 -11q15 0 26 11
t11 26v124q-17 -11 -37 -11q-28 0 -48 19.5t-20 47.5v292h-10q-16 0 -16 16q0 6 4.5 10.5t11.5 4.5h51q7 0 11 -4.5t4 -10.5q0 -16 -15 -16h-10v-292q0 -15 10.5 -26t26.5 -11q15 0 26 11t11 26v75v217h-11q-6 0 -10.5 4.5t-4.5 11.5q0 6 4.5 10.5t10.5 4.5h52v0z" />
    <glyph glyph-name="z" unicode="z" horiz-adv-x="236" 
d="M186 15q0 -15 -16 -15h-104q-9 0 -13 6q-4 5 -2 13l99 340h-69v-36q0 -6 -4.5 -10.5t-10.5 -4.5q-7 0 -11.5 4.5t-4.5 10.5v52q0 6 4.5 10.5t11.5 4.5h104q8 0 12 -6q5 -6 3 -14l-99 -340h69v36q0 7 4.5 11.5t10.5 4.5q16 0 16 -16v-51z" />
    <glyph glyph-name="slash" unicode="/" 
d="M66 0h-2q-6 1 -10 6t-3 11l105 720q1 6 6 10t11 3q6 -2 10 -6.5t3 -11.5l-105 -719q-2 -13 -15 -13z" />
    <glyph glyph-name="period" unicode="." horiz-adv-x="135" 
d="M65 0q-6 0 -10.5 4.5t-4.5 10.5v52q0 6 4.5 10.5t10.5 4.5q7 0 11.5 -4.5t4.5 -10.5v-52q0 -6 -4.5 -10.5t-11.5 -4.5z" />
    <glyph glyph-name="comma" unicode="," horiz-adv-x="135" 
d="M59 1q-6 -2 -11 3q-12 9 -3 21l30 42q4 5 10.5 6t11.5 -3t6 -10.5t-3 -11.5l-31 -41q-3 -4 -10 -6z" />
    <glyph glyph-name="question" unicode="?" horiz-adv-x="236" 
d="M118 82q6 0 10.5 -4t4.5 -11v-51q0 -7 -4.5 -11.5t-10.5 -4.5q-15 0 -15 16v51q0 15 15 15zM185 680l-52 -306v-243q0 -7 -4.5 -11.5t-10.5 -4.5q-15 0 -15 16v244v3l52 306q-1 15 -11.5 25.5t-25.5 10.5q-24 0 -34 -22h33q6 0 10.5 -4.5t4.5 -10.5q0 -7 -4.5 -11
t-10.5 -4h-52q-6 0 -10.5 4t-4.5 11q0 28 19.5 47.5t48.5 19.5q28 0 47.5 -19.5t19.5 -47.5v-3z" />
    <glyph glyph-name="exclam" unicode="!" horiz-adv-x="131" 
d="M66 82q6 0 10.5 -4.5t4.5 -10.5v-52q0 -6 -4.5 -10.5t-10.5 -4.5q-7 0 -11.5 4.5t-4.5 10.5v52q0 6 4.5 10.5t11.5 4.5zM66 750q6 0 10.5 -4.5t4.5 -10.5v-605q0 -7 -4.5 -11t-10.5 -4q-16 0 -16 15v605q0 6 4.5 10.5t11.5 4.5z" />
    <glyph glyph-name="backslash" unicode="\" 
d="M171 -1q-13 0 -15 13l-104 719q-2 7 2 11.5t10 6.5q7 1 11.5 -3t6.5 -10l104 -720q2 -6 -2 -11t-10 -6h-3z" />
    <glyph glyph-name="bracketleft" unicode="[" horiz-adv-x="236" 
d="M170 0h-104q-7 0 -11.5 4.5t-4.5 10.5v720q0 6 4.5 10.5t11.5 4.5h104q7 0 11.5 -4.5t4.5 -10.5q0 -16 -16 -16h-89v-689h89q7 0 11.5 -4.5t4.5 -10.5t-4.5 -10.5t-11.5 -4.5z" />
    <glyph glyph-name="bracketright" unicode="]" 
d="M170 0h-105q-6 0 -10.5 4.5t-4.5 10.5t4.5 10.5t10.5 4.5h90v689h-90q-6 0 -10.5 4.5t-4.5 11.5q0 6 4.5 10.5t10.5 4.5h105q6 0 10.5 -4.5t4.5 -10.5v-720q0 -6 -4.5 -10.5t-10.5 -4.5z" />
    <glyph glyph-name="braceleft" unicode="{" 
d="M170 0q-28 0 -47.5 19.5t-19.5 47.5v255q0 16 -11 26.5t-26 11.5q-6 0 -11 4t-5 11q0 6 4.5 10.5t11.5 4.5q15 0 26 11t11 26v255q0 28 19.5 48t47.5 20q7 0 11 -4.5t4 -10.5q0 -16 -15 -16t-26 -10.5t-11 -26.5v-255q0 -16 -7 -29.5t-18 -22.5q2 -2 3 -2.5t2 -2.5
q20 -20 20 -48v-255q0 -15 11 -26t26 -11q7 0 11 -4.5t4 -10.5t-4 -10.5t-11 -4.5z" />
    <glyph glyph-name="braceright" unicode="}" 
d="M65 0q-6 0 -10.5 4.5t-4.5 10.5t4.5 10.5t10.5 4.5q16 0 27 11t11 26v255q0 32 24 53q-3 3 -5 4q-19 21 -19 48v255q0 16 -11 26.5t-27 10.5q-6 0 -10.5 4.5t-4.5 11.5q0 6 4.5 10.5t10.5 4.5q29 0 48.5 -20t19.5 -48v-255q0 -15 10.5 -26t26.5 -11q6 0 10.5 -4.5
t4.5 -10.5q0 -15 -15 -15t-26 -11t-11 -27v-255q0 -28 -19.5 -47.5t-48.5 -19.5z" />
    <glyph glyph-name="cent" unicode="&#xa2;" 
d="M103 363q0 6 4.5 10.5t10.5 4.5h34q-5 10 -14 16.5t-21 6.5q-15 0 -26 -11t-11 -26v-255q0 -16 11 -27t26 -11q12 0 21 6.5t13 16.5h-33q-6 0 -10.5 4t-4.5 11q0 6 4.5 10.5t10.5 4.5h52q6 0 10.5 -4.5t4.5 -10.5q0 -25 -15 -43t-37 -23v-27q0 -16 -16 -16
q-6 0 -10.5 4.5t-4.5 11.5v27q-23 5 -37.5 23t-14.5 43v255q0 24 14.5 42t37.5 23v32q0 8 4.5 11.5t10.5 3.5t11 -4t5 -11v-32q22 -5 37 -23t15 -42v-1q0 -7 -4.5 -11.5t-10.5 -4.5h-52q-6 0 -10.5 4.5t-4.5 11.5z" />
    <glyph glyph-name="asciicircum" unicode="^" horiz-adv-x="236" 
d="M172 552q-11 0 -14 10l-38 122l-38 -122q-5 -13 -19 -10q-6 2 -9 7.5t-1 12.5l52 167q4 11 15 11q10 0 14 -11l53 -167q3 -15 -10 -20h-5z" />
    <glyph glyph-name="less" unicode="&#x3c;" 
d="M172 0q-12 0 -15 11l-106 356q-2 4 0 9l106 363q2 6 7.5 9.5t11.5 1.5q14 -5 11 -20l-105 -359l105 -351q2 -6 -1.5 -11.5t-9.5 -7.5q-1 -1 -4 -1z" />
    <glyph glyph-name="greater" unicode="&#x3e;" 
d="M67 -1q-3 0 -5 1q-6 2 -9 7.5t-1 11.5l105 351l-105 359q-3 15 11 20q14 3 19 -11l105 -363q1 -5 0 -9l-105 -356q-2 -5 -6 -8t-9 -3z" />
    <glyph glyph-name="quotedbl" unicode="&#x22;" horiz-adv-x="185" 
d="M117 750q7 0 11 -4.5t4 -10.5v-41q0 -16 -15 -16q-6 0 -10.5 4.5t-4.5 11.5v41q0 6 4.5 10.5t10.5 4.5zM65 750q6 0 10.5 -4.5t4.5 -10.5v-41q0 -7 -4.5 -11.5t-10.5 -4.5q-15 0 -15 16v41q0 6 4 10.5t11 4.5z" />
    <glyph glyph-name="quotesingle" unicode="'" horiz-adv-x="130" 
d="M65 750q7 0 11 -4.5t4 -10.5v-41q0 -16 -15 -16q-6 0 -10.5 4.5t-4.5 11.5v41q0 6 4.5 10.5t10.5 4.5z" />
    <glyph glyph-name="asterisk" unicode="*" horiz-adv-x="225" 
d="M165 669q5 -3 7 -9t-1 -11q-5 -8 -13 -8q-4 0 -8 2l-22 13v-26q0 -6 -4.5 -10.5t-11.5 -4.5q-6 0 -10.5 4.5t-4.5 10.5v26l-22 -13q-6 -2 -8 -2q-8 0 -13 8q-3 5 -1.5 11t7.5 9l22 13l-22 14q-6 3 -7.5 9t1.5 11t9.5 7t11.5 -1l22 -13v26q0 6 4.5 10.5t10.5 4.5
q7 0 11.5 -4.5t4.5 -10.5v-26l22 13q5 3 11.5 1t9.5 -7q7 -13 -6 -21l-22 -13l22 -13v0z" />
    <glyph glyph-name="colon" unicode=":" horiz-adv-x="130" 
d="M65 249q7 0 11 -4.5t4 -10.5v-52q0 -6 -4 -10.5t-11 -4.5q-6 0 -10.5 4.5t-4.5 10.5v52q0 6 4.5 10.5t10.5 4.5zM65 383q7 0 11 -4.5t4 -10.5v-52q0 -6 -4 -10.5t-11 -4.5q-6 0 -10.5 4.5t-4.5 10.5v52q0 6 4.5 10.5t10.5 4.5z" />
    <glyph glyph-name="semicolon" unicode=";" horiz-adv-x="185" 
d="M114 64q11 -11 0 -22l-37 -36q-4 -5 -10 -5t-11 5t-5 10.5t5 10.5l36 37q5 5 11 5t11 -5zM102 210q7 0 11 -4.5t4 -10.5v-52q0 -6 -4 -10.5t-11 -4.5q-6 0 -10.5 4.5t-4.5 10.5v52q0 6 4.5 10.5t10.5 4.5z" />
    <glyph glyph-name="equal" unicode="=" horiz-adv-x="237" 
d="M170 247q6 0 10.5 -4.5t4.5 -10.5q0 -7 -4.5 -11.5t-10.5 -4.5h-105q-6 0 -10.5 4.5t-4.5 11.5q0 6 4.5 10.5t10.5 4.5h105zM65 269q-6 0 -10.5 4.5t-4.5 10.5t4.5 10.5t10.5 4.5h105q6 0 10.5 -4.5t4.5 -10.5t-4.5 -10.5t-10.5 -4.5h-105z" />
    <glyph glyph-name="hyphen" unicode="-" horiz-adv-x="237" 
d="M170 240h-104q-16 0 -16 15q0 6 4.5 10.5t11.5 4.5h104q7 0 11.5 -4.5t4.5 -10.5q0 -15 -16 -15z" />
    <glyph glyph-name="plus" unicode="+" horiz-adv-x="237" 
d="M170 280q7 0 11.5 -4.5t4.5 -10.5q0 -15 -16 -15h-37v-38q0 -6 -4.5 -10.5t-10.5 -4.5t-10.5 4.5t-4.5 10.5v38h-37q-16 0 -16 15q0 6 4.5 10.5t11.5 4.5h37v37q0 7 4.5 11t10.5 4t10.5 -4t4.5 -11v-37h37v0z" />
    <glyph glyph-name="copyright" unicode="&#xa9;" horiz-adv-x="833" 
 />
    <glyph glyph-name="plusminus" unicode="&#xb1;" horiz-adv-x="833" 
 />
    <glyph glyph-name="endash" unicode="&#x2013;" horiz-adv-x="833" 
 />
    <glyph glyph-name="at" unicode="@" horiz-adv-x="354" 
d="M288 353q16 0 16 -16v-265q0 -35 -20 -55q-17 -17 -43 -17h-123q-29 0 -48.5 19.5t-19.5 47.5v438q0 28 19.5 48t48.5 20h60q29 0 48.5 -20t19.5 -48v-388q0 -29 -19.5 -48.5t-48.5 -19.5q-28 0 -47.5 19.5t-19.5 48.5v243v12q0 28 19.5 48t47.5 20q11 0 20.5 -3.5
t17.5 -8.5v77q0 16 -11 26.5t-27 10.5h-60q-16 0 -27 -10.5t-11 -26.5v-438q0 -15 11 -26t27 -11h123q12 0 22 8q10 11 10 34v265q0 7 4.5 11.5t10.5 4.5zM216 372q0 15 -11 26t-27 11q-15 0 -26 -11t-11 -26v-77v-178q0 -16 11 -27t26 -11q16 0 27 11t11 27v255z" />
    <glyph glyph-name="grave" unicode="`" horiz-adv-x="166" 
d="M96 676q-7 2 -10 6l-31 42q-4 5 -3 11t6 10t11.5 3t9.5 -6l31 -42q9 -12 -3 -21q-5 -5 -11 -3z" />
    <glyph glyph-name="underscore" unicode="_" horiz-adv-x="236" 
d="M170 0h-105q-6 0 -10.5 4.5t-4.5 11.5q0 6 4.5 10.5t10.5 4.5h105q6 0 10.5 -4.5t4.5 -10.5q0 -7 -4.5 -11.5t-10.5 -4.5z" />
    <glyph glyph-name="fraction" unicode="&#x2044;" horiz-adv-x="236" 
d="M66 0h-2q-6 1 -10 6t-3 11l105 720q1 6 6 10t11 3q6 -2 10 -6.5t3 -11.5l-105 -719q-2 -13 -15 -13z" />
    <glyph glyph-name="questiondown" unicode="&#xbf;" horiz-adv-x="236" 
d="M118 668q-15 0 -15 16v51q0 15 15 15q6 0 10.5 -4t4.5 -11v-51q0 -7 -4.5 -11.5t-10.5 -4.5zM50 71l53 306v243q0 15 15 15q6 0 10.5 -4t4.5 -11v-245v-2l-52 -306q0 -15 11 -25.5t26 -10.5q24 0 34 22h-34q-6 0 -10.5 4.5t-4.5 10.5t4.5 10.5t10.5 4.5h52q6 0 10.5 -4.5
t4.5 -10.5q0 -28 -19.5 -48t-47.5 -20q-29 0 -48.5 20t-19.5 48v3z" />
    <glyph glyph-name="bar" unicode="|" horiz-adv-x="130" 
d="M65 -37q-6 0 -10.5 4.5t-4.5 10.5v791q0 7 4.5 11t10.5 4q15 0 15 -15v-791q0 -6 -4 -10.5t-11 -4.5z" />
    <glyph glyph-name="ellipsis" unicode="&#x2026;" horiz-adv-x="405" 
d="M65 0q-6 0 -10.5 4.5t-4.5 10.5v52q0 6 4.5 10.5t10.5 4.5q7 0 11.5 -4.5t4.5 -10.5v-52q0 -6 -4.5 -10.5t-11.5 -4.5zM200 0q-6 0 -10.5 4.5t-4.5 10.5v52q0 6 4.5 10.5t10.5 4.5q7 0 11.5 -4.5t4.5 -10.5v-52q0 -6 -4.5 -10.5t-11.5 -4.5zM335 0q-6 0 -10.5 4.5
t-4.5 10.5v52q0 6 4.5 10.5t10.5 4.5q7 0 11.5 -4.5t4.5 -10.5v-52q0 -6 -4.5 -10.5t-11.5 -4.5z" />
    <glyph glyph-name="emdash" unicode="&#x2014;" horiz-adv-x="340" 
d="M275 360h-209q-16 0 -16 15q0 6 4.5 10.5t11.5 4.5h209q6 0 10.5 -4.5t4.5 -10.5q0 -7 -4.5 -11t-10.5 -4z" />
    <glyph glyph-name="bullet" unicode="&#x2022;" horiz-adv-x="185" 
d="M91 333q-17 0 -29 12.5t-12 29.5t12 29t29 12t29.5 -12t12.5 -29t-12.5 -29.5t-29.5 -12.5zM91 386q-11 0 -11 -11q0 -12 11 -12t11 12q0 11 -11 11z" />
    <glyph glyph-name="asciitilde" unicode="~" horiz-adv-x="380" 
d="M261 221q-5 0 -9 3l-139 102q-14 -2 -23.5 -12.5t-9.5 -24.5q0 -16 11 -26.5t27 -10.5q6 0 10.5 -4.5t4.5 -11.5q0 -6 -4.5 -10.5t-10.5 -4.5q-29 0 -48.5 20t-19.5 48t19.5 47.5t48.5 19.5q4 0 9 -3l139 -101q14 2 23 12.5t9 24.5q0 15 -11 26t-26 11q-6 0 -10.5 4.5
t-4.5 10.5q0 7 4.5 11t10.5 4q28 0 48 -19.5t20 -47.5q0 -29 -20 -48.5t-48 -19.5z" />
    <glyph glyph-name="exclamdown" unicode="&#xa1;" horiz-adv-x="131" 
d="M66 750q6 0 10.5 -4.5t4.5 -10.5v-52q0 -6 -4.5 -10.5t-10.5 -4.5q-7 0 -11.5 4.5t-4.5 10.5v52q0 6 4.5 10.5t11.5 4.5zM66 635q6 0 10.5 -4.5t4.5 -10.5v-605q0 -6 -4.5 -10.5t-10.5 -4.5q-7 0 -11.5 4.5t-4.5 10.5v605q0 6 4.5 10.5t11.5 4.5z" />
    <glyph glyph-name="degree" unicode="&#xb0;" horiz-adv-x="210" 
d="M105 639q-23 0 -39 16t-16 39t16 39.5t39 16.5t39.5 -16.5t16.5 -39.5t-16.5 -39t-39.5 -16zM105 720q-11 0 -18 -7.5t-7 -18.5t7 -18t18 -7t18.5 7t7.5 18t-7.5 18.5t-18.5 7.5z" />
    <glyph glyph-name="ae" unicode="&#xe6;" horiz-adv-x="341" 
d="M186 179v-112q0 -15 11 -26t26 -11q26 0 34 23h-33q-6 0 -10.5 4t-4.5 11q0 6 4.5 10.5t10.5 4.5h52q6 0 10.5 -4.5t4.5 -10.5v-1q0 -28 -20 -47.5t-48 -19.5q-33 0 -52 25q-20 -25 -53 -25q-28 0 -47.5 19.5t-19.5 47.5v75q0 29 19.5 48.5t47.5 19.5q21 0 38 -11v123
q0 16 -11 26.5t-27 10.5q-25 0 -33 -22h33q6 0 10.5 -4t4.5 -11q0 -6 -4.5 -10.5t-10.5 -4.5h-52q-6 0 -10.5 4.5t-4.5 10.5q0 28 19.5 48t47.5 20q17 0 30 -7t23 -18q9 11 22.5 18t29.5 7q28 0 48 -20t20 -48v-127q0 -7 -4.5 -11.5t-10.5 -4.5h-90zM223 359
q-15 0 -26 -10.5t-11 -26.5v-112h74v112q0 16 -10.5 26.5t-26.5 10.5zM118 30q16 0 27 11t11 26v75q0 16 -11 27t-27 11q-15 0 -26 -11t-11 -27v-75q0 -15 11 -26t26 -11z" />
    <glyph glyph-name="oe" unicode="&#x153;" horiz-adv-x="339" 
d="M185 180v-113q0 -15 10.5 -26t26.5 -11q24 0 34 23h-33q-16 0 -16 15q0 6 4.5 10.5t11.5 4.5h51q7 0 11 -4.5t4 -10.5v-1q0 -28 -19.5 -47.5t-47.5 -19.5q-33 0 -53 25q-19 -25 -52 -25q-28 0 -48 19.5t-20 47.5v255q0 28 20 48t48 20q16 0 29.5 -7t22.5 -18
q10 11 23.5 18t29.5 7q28 0 47.5 -20t19.5 -48v-127q0 -15 -15 -15h-89zM222 359q-16 0 -26.5 -10.5t-10.5 -26.5v-112h74v112q0 16 -11 26.5t-26 10.5zM154 322q0 16 -10.5 26.5t-26.5 10.5q-15 0 -26 -10.5t-11 -26.5v-255q0 -15 11 -26t26 -11q16 0 26.5 11t10.5 26v255z
" />
    <glyph glyph-name="zcaron" unicode="&#x17e;" horiz-adv-x="236" 
d="M170 82q6 0 10.5 -4.5t4.5 -11.5v-51q0 -7 -4.5 -11t-10.5 -4h-105q-8 0 -12 6q-5 6 -2 13l99 340h-70v-36q0 -6 -4 -10.5t-11 -4.5q-6 0 -10.5 4.5t-4.5 10.5v52q0 6 4.5 10.5t10.5 4.5h105q7 0 12 -6t3 -14l-100 -340h70v36q0 7 4.5 11.5t10.5 4.5zM77 480q-5 5 -4 11
t6 10t11 3.5t10 -5.5l18 -21l17 21q4 5 10 5.5t11 -3.5t6 -10t-4 -11l-29 -35q-5 -6 -11 -6q-8 0 -12 6z" />
    <glyph glyph-name="scaron" unicode="&#x161;" horiz-adv-x="236" 
d="M184 73q1 -2 1 -6q0 -28 -19.5 -47.5t-47.5 -19.5q-29 0 -48.5 19.5t-19.5 47.5v1q0 7 4.5 11t10.5 4h52q6 0 10.5 -4t4.5 -11q0 -6 -4.5 -10.5t-10.5 -4.5h-34q5 -10 14 -16.5t21 -6.5q14 0 24.5 10t12.5 24l-104 252q-1 2 -1 6q0 28 19.5 48t48.5 20q28 0 47.5 -20
t19.5 -48q0 -6 -4.5 -10.5t-10.5 -4.5h-52q-6 0 -10.5 4.5t-4.5 10.5q0 7 4.5 11t10.5 4h33q-8 22 -33 22q-15 0 -25.5 -10t-11.5 -24zM77 480q-4 5 -3.5 11t5.5 10t11 3.5t10 -5.5l18 -21l17 21q4 5 10 5.5t11 -3.5t6 -10t-4 -11l-29 -35q-5 -6 -11 -6q-8 0 -12 6z" />
    <glyph glyph-name="ccedilla" unicode="&#xe7;" horiz-adv-x="236" 
d="M169 83q6 0 10.5 -4.5t4.5 -10.5v-1q0 -25 -16 -43.5t-40 -22.5l-9 -25q8 -4 13.5 -12t5.5 -18q0 -14 -9.5 -24t-23.5 -10q-10 0 -10 10t10 10q12 0 12 14q0 13 -12 13q-1 0 -2 0.5t-2 0.5l-2 2h-1q-1 1 -1 2q-1 0 -1 2q-1 0 -1 1v2v1v1v2h1l10 27q-24 4 -40.5 22.5
t-16.5 44.5v255q0 28 19.5 48t47.5 20t48 -20t20 -48q0 -6 -4.5 -10.5t-10.5 -4.5h-52q-6 0 -10.5 4.5t-4.5 10.5t4.5 10.5t10.5 4.5h33q-10 22 -34 22q-15 0 -26 -10.5t-11 -26.5v-255q0 -16 11 -26.5t26 -10.5q11 0 20.5 6t13.5 16h-33q-6 0 -10.5 4.5t-4.5 11.5
q0 6 4.5 10.5t10.5 4.5h52v0z" />
    <glyph glyph-name="ntilde" unicode="&#xf1;" horiz-adv-x="236" 
d="M196 30q6 0 10.5 -4.5t4.5 -10.5q0 -7 -4.5 -11t-10.5 -4h-52q-6 0 -10.5 4t-4.5 11q0 6 4.5 10.5t10.5 4.5h11v292q0 16 -11 26.5t-26 10.5q-16 0 -26.5 -10.5t-10.5 -26.5v-292h10q7 0 11.5 -4.5t4.5 -10.5q0 -15 -16 -15h-51q-15 0 -15 15q0 6 4 10.5t11 4.5h10v292
q0 28 20 48t48 20t47.5 -20t19.5 -48v-292h11zM93 443q-12 0 -20.5 8.5t-8.5 20.5t8.5 20.5t20.5 8.5q4 0 6 -2l46 -35q6 1 6 8q0 9 -8 9q-11 0 -11 10t11 10q12 0 20.5 -8.5t8.5 -20.5t-8.5 -20.5t-20.5 -8.5q-3 0 -7 2l-46 35q-6 -2 -6 -8q0 -9 9 -9q10 0 10 -10t-10 -10z
" />
    <glyph glyph-name="ydieresis" unicode="&#xff;" 
d="M196 390q7 0 11.5 -4.5t4.5 -10.5q0 -15 -16 -15h-10v-218v-75v-180q0 -28 -20 -47.5t-48 -19.5t-47.5 19.5t-19.5 47.5v38q0 6 4 10.5t11 4.5h51q7 0 11.5 -4.5t4.5 -10.5q0 -16 -16 -16h-36v-22q0 -15 11 -26t26 -11q16 0 26.5 11t10.5 26v124q-16 -11 -37 -11
q-28 0 -47.5 19.5t-19.5 47.5v293h-11q-6 0 -10.5 4t-4.5 11q0 6 4.5 10.5t10.5 4.5h52q6 0 10.5 -4.5t4.5 -10.5q0 -7 -4.5 -11t-10.5 -4h-11v-293q0 -15 11 -26t26 -11q16 0 26.5 11t10.5 26v75v218h-10q-15 0 -15 15q0 6 4 10.5t11 4.5h51zM89 439q-6 0 -10.5 4.5
t-4.5 11.5v35q0 6 4.5 10.5t10.5 4.5q7 0 11 -4.5t4 -10.5v-35q0 -16 -15 -16zM147 439q-6 0 -10.5 4.5t-4.5 11.5v35q0 6 4.5 10.5t10.5 4.5q7 0 11 -4.5t4 -10.5v-35q0 -16 -15 -16z" />
    <glyph glyph-name="icircumflex" unicode="&#xee;" horiz-adv-x="179" 
d="M107 359v-329h10q7 0 11 -4.5t4 -10.5q0 -15 -15 -15h-51q-16 0 -16 15q0 6 4.5 10.5t11.5 4.5h10v329h-10q-16 0 -16 16q0 6 4.5 10.5t11.5 4.5h51q7 0 11 -4.5t4 -10.5q0 -16 -15 -16h-10zM74 445q-4 -5 -10 -6t-11 4q-5 4 -6 10t4 11l29 35q4 5 11 5t12 -5l29 -35
q5 -5 4 -11t-6 -10q-4 -4 -10 -4q-7 0 -11 6l-18 21z" />
    <glyph glyph-name="Euro" unicode="&#x20ac;" horiz-adv-x="285" 
d="M126 427v-74h89q7 0 11.5 -4.5t4.5 -10.5q0 -15 -16 -15h-89v-256q0 -15 11 -26t26 -11q16 0 26.5 11t10.5 26q0 7 4.5 11t10.5 4q16 0 16 -15q0 -28 -20 -47.5t-48 -19.5t-48 19.5t-20 47.5v256h-37q-6 0 -10.5 4t-4.5 11q0 6 4.5 10.5t10.5 4.5h37v74h-37q-6 0 -10.5 4
t-4.5 11q0 6 4.5 10.5t10.5 4.5h37v225q0 28 20 48t48 20t48 -20t20 -48q0 -6 -4.5 -10.5t-11.5 -4.5q-6 0 -10.5 4.5t-4.5 10.5q0 16 -10.5 26.5t-26.5 10.5q-15 0 -26 -10.5t-11 -26.5v-225h89q7 0 11.5 -4.5t4.5 -10.5q0 -15 -16 -15h-89z" />
    <glyph glyph-name="idieresis" unicode="&#xef;" horiz-adv-x="185" 
d="M107 359v-329h10q7 0 11 -4.5t4 -10.5q0 -15 -15 -15h-51q-16 0 -16 15q0 6 4.5 10.5t11.5 4.5h10v329h-10q-16 0 -16 16q0 6 4.5 10.5t11.5 4.5h51q7 0 11 -4.5t4 -10.5q0 -16 -15 -16h-10zM66 439q-7 0 -11.5 4.5t-4.5 10.5v35q0 16 16 16q6 0 10.5 -4.5t4.5 -11.5v-35
q0 -6 -4.5 -10.5t-10.5 -4.5zM124 505q6 0 10.5 -4.5t4.5 -11.5v-35q0 -6 -4.5 -10.5t-10.5 -4.5q-7 0 -11 4.5t-4 10.5v35q0 16 15 16z" />
    <glyph glyph-name="eth" unicode="&#xf0;" 
d="M186 67q0 -28 -19.5 -47.5t-47.5 -19.5t-48 19.5t-20 47.5v255q0 28 19.5 47.5t47.5 20.5h1h32l-20 67l-18 -17q-6 -4 -11 -4q-6 0 -11 5q-4 5 -4 11t5 11l30 27l-67 229h-14q-7 0 -11.5 4.5t-4.5 10.5q0 16 16 16h51q16 0 16 -16q0 -6 -4.5 -10.5t-11.5 -4.5h-5l60 -206
l14 13q5 4 11 4t10 -5q10 -12 0 -22l-26 -23l30 -101v-1v-3v-308zM119 30q15 0 26 11t11 26v292h-37q-16 0 -26.5 -10.5t-10.5 -26.5v-255q0 -15 10.5 -26t26.5 -11z" />
    <glyph glyph-name="Eth" unicode="&#xd0;" horiz-adv-x="250" 
d="M128 750q29 0 48.5 -20t19.5 -48v-615q0 -28 -19.5 -47.5t-48.5 -19.5h-52q-6 0 -10.5 4t-4.5 11v344h-27q-15 0 -15 16q0 6 4 10.5t11 4.5h27v344q0 7 4.5 11.5t10.5 4.5h52zM166 682q0 16 -11 26.5t-27 10.5h-37v-329h27q7 0 11.5 -4.5t4.5 -10.5q0 -16 -16 -16h-27
v-329h37q16 0 27 11t11 26v615z" />
    <glyph glyph-name="sterling" unicode="&#xa3;" horiz-adv-x="276" 
d="M120 68q0 -21 -11 -38h101q6 0 10.5 -4t4.5 -11q0 -6 -4.5 -10.5t-10.5 -4.5h-158q-6 0 -10.5 4.5t-4.5 10.5q0 7 4.5 11t10.5 4q16 0 27 11t11 27v292h-38q-6 0 -10.5 4.5t-4.5 10.5t4.5 10.5t10.5 4.5h38v292q0 29 19.5 48.5t47.5 19.5t48 -19.5t20 -48.5
q0 -6 -4.5 -10.5t-10.5 -4.5q-7 0 -11.5 4.5t-4.5 10.5q0 16 -10.5 27t-26.5 11q-15 0 -26 -11t-11 -27v-292h90q6 0 10.5 -4.5t4.5 -10.5t-4.5 -10.5t-10.5 -4.5h-90v-292z" />
    <glyph glyph-name="igrave" unicode="&#xec;" horiz-adv-x="171" 
d="M111 30q7 0 11.5 -4.5t4.5 -10.5q0 -15 -16 -15h-51q-15 0 -15 15q0 6 4 10.5t11 4.5h10v329h-10q-15 0 -15 16q0 6 4 10.5t11 4.5h51q7 0 11.5 -4.5t4.5 -10.5q0 -16 -16 -16h-10v-329h10zM86 438q-7 0 -11 4l-37 37q-5 5 -5 10.5t5 10.5q11 11 22 0l36 -36q5 -5 5 -11
t-5 -11q-4 -4 -10 -4z" />
    <glyph glyph-name="iacute" unicode="&#xed;" horiz-adv-x="170" 
d="M100 359v-329h11q6 0 10.5 -4.5t4.5 -10.5q0 -7 -4.5 -11t-10.5 -4h-52q-6 0 -10.5 4t-4.5 11q0 6 4.5 10.5t10.5 4.5h11v329h-11q-6 0 -10.5 4.5t-4.5 11.5q0 6 4.5 10.5t10.5 4.5h52q6 0 10.5 -4.5t4.5 -10.5q0 -7 -4.5 -11.5t-10.5 -4.5h-11zM132 500q10 -11 0 -21
l-36 -37q-4 -4 -11 -4t-11 4q-5 5 -5 11t5 11l37 36q10 10 21 0z" />
    <glyph glyph-name="ocircumflex" unicode="&#xf4;" 
d="M118 390q28 0 47.5 -19.5t19.5 -47.5v-255q0 -28 -19.5 -48t-47.5 -20q-29 0 -48.5 20t-19.5 48v255q0 28 19.5 47.5t48.5 19.5zM155 323q0 15 -11 26t-26 11q-16 0 -26.5 -11t-10.5 -26v-255q0 -16 10.5 -26.5t26.5 -10.5q15 0 26 10.5t11 26.5v255zM100 453
q-4 -5 -10 -6t-11 4q-5 4 -6 10t4 11l29 35q5 5 11.5 5t11.5 -5l29 -35q5 -5 4 -11t-6 -10q-4 -4 -9 -4q-8 0 -12 6l-18 21z" />
    <glyph glyph-name="ecircumflex" unicode="&#xea;" horiz-adv-x="236" 
d="M82 179v-112q0 -15 10.5 -26t26.5 -11q24 0 34 23h-33q-16 0 -16 15q0 6 4.5 10.5t11.5 4.5h51q7 0 11 -4.5t4 -10.5v-1q0 -28 -19.5 -47.5t-47.5 -19.5t-48 19.5t-20 47.5v255q0 28 20 48t48 20t47.5 -20t19.5 -48v-127q0 -16 -15 -16h-89zM82 210h74v112q0 16 -11 26.5
t-26 10.5q-16 0 -26.5 -10.5t-10.5 -26.5v-112zM101 445q-4 -5 -10 -6t-11 4q-5 4 -5.5 10t3.5 11l29 35q5 5 12 5t11 -5l30 -35q4 -5 3.5 -11t-5.5 -10q-4 -4 -10 -4q-8 0 -12 6l-17 21z" />
    <glyph glyph-name="edieresis" unicode="&#xeb;" horiz-adv-x="236" 
d="M81 179v-112q0 -15 11 -26t26 -11q25 0 35 23h-34q-6 0 -10.5 4t-4.5 11q0 6 4.5 10.5t10.5 4.5h52q6 0 10.5 -4.5t4.5 -10.5v-1q0 -28 -19.5 -47.5t-48.5 -19.5q-28 0 -47.5 19.5t-19.5 47.5v255q0 28 19.5 48t47.5 20q29 0 48.5 -20t19.5 -48v-127q0 -7 -4.5 -11.5
t-10.5 -4.5h-90zM81 210h75v112q0 16 -11 26.5t-27 10.5q-15 0 -26 -10.5t-11 -26.5v-112zM89 439q-6 0 -10.5 4.5t-4.5 10.5v35q0 7 4.5 11.5t10.5 4.5q16 0 16 -16v-35q0 -6 -4.5 -10.5t-11.5 -4.5zM148 439q-7 0 -11.5 4.5t-4.5 10.5v35q0 16 16 16q6 0 10.5 -4.5
t4.5 -11.5v-35q0 -6 -4.5 -10.5t-10.5 -4.5z" />
    <glyph glyph-name="egrave" unicode="&#xe8;" horiz-adv-x="236" 
d="M81 179v-112q0 -15 11 -26t27 -11q24 0 34 23h-34q-6 0 -10.5 4t-4.5 11q0 6 4.5 10.5t10.5 4.5h52q6 0 10.5 -4.5t4.5 -10.5v-1q0 -28 -19.5 -47.5t-47.5 -19.5q-29 0 -48.5 19.5t-19.5 47.5v255q0 28 19.5 48t47.5 20q29 0 48.5 -20t19.5 -48v-127q0 -7 -4.5 -11.5
t-10.5 -4.5h-90zM81 210h75v112q0 16 -11 26.5t-27 10.5q-15 0 -26 -10.5t-11 -26.5v-112zM89 479q-9 11 1 21q4 5 10 5t11 -5l36 -36q5 -5 5 -11t-5 -11q-3 -4 -10 -4t-11 4z" />
    <glyph glyph-name="eacute" unicode="&#xe9;" horiz-adv-x="236" 
d="M81 179v-112q0 -15 11 -26t26 -11q26 0 34 23h-33q-6 0 -10.5 4t-4.5 11q0 6 4.5 10.5t10.5 4.5h52q6 0 10.5 -4.5t4.5 -10.5v-1q0 -28 -20 -47.5t-48 -19.5t-47.5 19.5t-19.5 47.5v255q0 28 19.5 48t47.5 20t48 -20t20 -48v-127q0 -7 -4.5 -11.5t-10.5 -4.5h-90zM81 210
h74v112q0 16 -10.5 26.5t-26.5 10.5q-15 0 -26 -10.5t-11 -26.5v-112zM100 438q-7 0 -11 4q-5 5 -5 11t5 11l37 36q10 10 21 0q10 -11 0 -21l-36 -37q-4 -4 -11 -4z" />
    <glyph glyph-name="acircumflex" unicode="&#xe2;" horiz-adv-x="237" 
d="M117 390q29 0 48.5 -20t19.5 -48v-255q0 -28 -19.5 -47.5t-48.5 -19.5q-28 0 -47.5 19.5t-19.5 47.5v75q0 29 19.5 48.5t47.5 19.5q21 0 38 -11v123q0 16 -11 26.5t-27 10.5q-25 0 -33 -22h33q6 0 10.5 -4t4.5 -11q0 -6 -4.5 -10.5t-10.5 -4.5h-52q-6 0 -10.5 4.5
t-4.5 10.5q0 28 19.5 48t47.5 20zM155 142q0 16 -11 27t-27 11q-15 0 -26 -11t-11 -27v-75q0 -15 11 -26t26 -11q16 0 27 11t11 26v75zM100 445q-4 -5 -10 -6t-11 4q-5 4 -6 10t4 11l29 35q5 5 11.5 5t11.5 -5l29 -35q5 -5 4 -11t-6 -10q-4 -4 -9 -4q-8 0 -12 6l-18 21z" />
    <glyph glyph-name="atilde" unicode="&#xe3;" horiz-adv-x="237" 
d="M119 390q28 0 47.5 -20t19.5 -48v-255q0 -28 -19.5 -47.5t-47.5 -19.5q-29 0 -48.5 19.5t-19.5 47.5v75q0 29 19.5 48.5t48.5 19.5q20 0 37 -11v123q0 16 -11 26.5t-26 10.5q-24 0 -34 -22h33q6 0 10.5 -4t4.5 -11q0 -6 -4.5 -10.5t-10.5 -4.5h-52q-6 0 -10.5 4.5
t-4.5 10.5q0 28 19.5 48t48.5 20zM156 142q0 16 -11 27t-26 11q-16 0 -27 -11t-11 -27v-75q0 -15 11 -26t27 -11q15 0 26 11t11 26v75zM94 443q-12 0 -20.5 8.5t-8.5 20.5t8.5 20.5t20.5 8.5q2 0 6 -2l46 -35q6 1 6 8q0 9 -9 9q-10 0 -10 10t10 10q12 0 20.5 -8.5t8.5 -20.5
t-8.5 -20.5t-20.5 -8.5q-2 0 -6 2l-46 35q-6 -2 -6 -8q0 -9 9 -9q10 0 10 -10t-10 -10z" />
    <glyph glyph-name="aring" unicode="&#xe5;" horiz-adv-x="237" 
d="M117 390q29 0 48.5 -20t19.5 -48v-255q0 -28 -19.5 -47.5t-48.5 -19.5q-28 0 -47.5 19.5t-19.5 47.5v75q0 29 19.5 48.5t47.5 19.5q21 0 38 -11v123q0 16 -11 26.5t-27 10.5q-25 0 -33 -22h33q6 0 10.5 -4t4.5 -11q0 -6 -4.5 -10.5t-10.5 -4.5h-52q-6 0 -10.5 4.5
t-4.5 10.5q0 28 19.5 48t47.5 20zM155 142q0 16 -11 27t-27 11q-15 0 -26 -11t-11 -27v-75q0 -15 11 -26t26 -11q16 0 27 11t11 26v75zM117 443q-14 0 -24.5 10.5t-10.5 24.5t10.5 24.5t24.5 10.5q15 0 25.5 -10.5t10.5 -24.5t-10.5 -24.5t-25.5 -10.5zM117 493
q-6 0 -10 -4.5t-4 -10.5t4 -10.5t10 -4.5q7 0 11 4.5t4 10.5t-4 10.5t-11 4.5z" />
    <glyph glyph-name="agrave" unicode="&#xe0;" horiz-adv-x="237" 
d="M117 390q29 0 48.5 -20t19.5 -48v-255q0 -28 -19.5 -47.5t-48.5 -19.5q-28 0 -47.5 19.5t-19.5 47.5v75q0 29 19.5 48.5t47.5 19.5q21 0 38 -11v123q0 16 -11 26.5t-27 10.5q-25 0 -33 -22h33q6 0 10.5 -4t4.5 -11q0 -6 -4.5 -10.5t-10.5 -4.5h-52q-6 0 -10.5 4.5
t-4.5 10.5q0 28 19.5 48t47.5 20zM155 142q0 16 -11 27t-27 11q-15 0 -26 -11t-11 -27v-75q0 -15 11 -26t26 -11q16 0 27 11t11 26v75zM88 479q-5 5 -5 10.5t5 10.5q11 11 22 0l36 -36q5 -5 5 -11t-5 -11q-4 -4 -10 -4q-7 0 -11 4z" />
    <glyph glyph-name="aacute" unicode="&#xe1;" horiz-adv-x="237" 
d="M118 390q29 0 48.5 -20t19.5 -48v-255q0 -28 -19.5 -47.5t-48.5 -19.5q-28 0 -47.5 19.5t-19.5 47.5v75q0 29 19.5 48.5t47.5 19.5q21 0 37 -11v123q0 16 -10.5 26.5t-26.5 10.5q-24 0 -34 -22h34q6 0 10.5 -4t4.5 -11q0 -6 -4.5 -10.5t-10.5 -4.5h-52q-6 0 -10.5 4.5
t-4.5 10.5q0 28 19.5 48t47.5 20zM155 142q0 16 -10.5 27t-26.5 11q-15 0 -26 -11t-11 -27v-75q0 -15 11 -26t26 -11q16 0 26.5 11t10.5 26v75zM100 438q-7 0 -11 4q-5 5 -5 11t5 11l37 36q10 10 21 0q10 -11 0 -21l-36 -37q-4 -4 -11 -4z" />
    <glyph glyph-name="udieresis" unicode="&#xfc;" 
d="M196 390q6 0 10.5 -4.5t4.5 -10.5q0 -7 -4.5 -11.5t-10.5 -4.5h-11v-292q0 -28 -19.5 -47.5t-48.5 -19.5q-28 0 -47.5 19.5t-19.5 47.5v292h-11q-6 0 -10.5 4.5t-4.5 11.5q0 6 4.5 10.5t10.5 4.5h52q6 0 10.5 -4.5t4.5 -10.5q0 -7 -4.5 -11.5t-10.5 -4.5h-11v-292
q0 -15 11 -26t26 -11q16 0 27 11t11 26v292h-11q-6 0 -10.5 4.5t-4.5 11.5q0 6 4.5 10.5t10.5 4.5h52zM88 439q-6 0 -10.5 4.5t-4.5 10.5v35q0 7 4.5 11.5t10.5 4.5q16 0 16 -16v-35q0 -6 -4.5 -10.5t-11.5 -4.5zM146 439q-6 0 -10.5 4.5t-4.5 10.5v35q0 7 4.5 11.5
t10.5 4.5q16 0 16 -16v-35q0 -6 -4.5 -10.5t-11.5 -4.5z" />
    <glyph glyph-name="uacute" unicode="&#xfa;" 
d="M196 390q6 0 10.5 -4.5t4.5 -10.5q0 -7 -4.5 -11.5t-10.5 -4.5h-11v-292q0 -28 -19.5 -47.5t-48.5 -19.5q-28 0 -47.5 19.5t-19.5 47.5v292h-11q-6 0 -10.5 4.5t-4.5 11.5q0 6 4.5 10.5t10.5 4.5h52q6 0 10.5 -4.5t4.5 -10.5q0 -7 -4.5 -11.5t-10.5 -4.5h-11v-292
q0 -15 11 -26t26 -11q16 0 27 11t11 26v292h-11q-6 0 -10.5 4.5t-4.5 11.5q0 6 4.5 10.5t10.5 4.5h52zM99 438q-7 0 -11 4q-9 11 0 22l37 36q5 5 11 5t10 -5q10 -11 0 -21l-36 -37q-4 -4 -11 -4z" />
    <glyph glyph-name="ugrave" unicode="&#xf9;" 
d="M196 390q6 0 10.5 -4.5t4.5 -10.5q0 -7 -4.5 -11.5t-10.5 -4.5h-11v-292q0 -28 -19.5 -47.5t-47.5 -19.5q-29 0 -48.5 19.5t-19.5 47.5v292h-10q-16 0 -16 16q0 6 4.5 10.5t11.5 4.5h51q7 0 11 -4.5t4 -10.5q0 -16 -15 -16h-10v-292q0 -15 10.5 -26t26.5 -11q15 0 26 11
t11 26v292h-11q-6 0 -10.5 4.5t-4.5 11.5q0 6 4.5 10.5t10.5 4.5h52zM89 479q-5 5 -5 10.5t5 10.5q10 10 21 0l37 -36q5 -5 5 -11t-5 -11q-4 -4 -11 -4t-11 4z" />
    <glyph glyph-name="ucircumflex" unicode="&#xfb;" 
d="M195 390q7 0 11.5 -4.5t4.5 -10.5q0 -16 -16 -16h-10v-292q0 -28 -20 -47.5t-48 -19.5t-47.5 19.5t-19.5 47.5v292h-11q-6 0 -10.5 4.5t-4.5 11.5q0 6 4.5 10.5t10.5 4.5h52q6 0 10.5 -4.5t4.5 -10.5q0 -7 -4.5 -11.5t-10.5 -4.5h-11v-292q0 -15 11 -26t26 -11
q16 0 26.5 11t10.5 26v292h-10q-15 0 -15 16q0 6 4 10.5t11 4.5h51zM100 445q-10 -12 -22 -2q-5 4 -5.5 10t3.5 11l30 35q4 5 11 5t12 -5l29 -35q4 -5 3.5 -11t-5.5 -10q-4 -4 -10 -4q-7 0 -11 6l-18 21z" />
    <glyph glyph-name="yacute" unicode="&#xfd;" 
d="M100 438q-7 0 -11 4q-5 5 -5 11t5 11l36 36q11 11 22 0q10 -11 0 -21l-37 -37q-3 -4 -10 -4zM196 390q7 0 11 -4.5t4 -10.5q0 -15 -15 -15h-10v-218v-75v-180q0 -28 -20 -47.5t-48 -19.5t-48 19.5t-20 47.5v38q0 6 4.5 10.5t11.5 4.5h51q7 0 11 -4.5t4 -10.5
q0 -16 -15 -16h-36v-22q0 -15 10.5 -26t26.5 -11q15 0 26 11t11 26v124q-17 -11 -37 -11q-28 0 -48 19.5t-20 47.5v293h-10q-15 0 -15 15q0 6 4 10.5t11 4.5h51q7 0 11.5 -4.5t4.5 -10.5q0 -15 -16 -15h-10v-293q0 -15 10.5 -26t26.5 -11q15 0 26 11t11 26v75v218h-10
q-16 0 -16 15q0 6 4.5 10.5t11.5 4.5h51z" />
    <glyph glyph-name="thorn" unicode="&#xfe;" 
d="M117 390q29 0 48.5 -19.5t19.5 -47.5v-255q0 -28 -19.5 -48t-48.5 -20q-20 0 -37 11v-176q0 -6 -4.5 -10.5t-10.5 -4.5t-10.5 4.5t-4.5 10.5v233v255v232q0 6 4.5 10.5t10.5 4.5t10.5 -4.5t4.5 -10.5v-176q17 11 37 11zM154 323q0 15 -10.5 26t-26.5 11q-15 0 -26 -11
t-11 -26v-255q0 -16 11 -26.5t26 -10.5q16 0 26.5 10.5t10.5 26.5v255z" />
    <glyph glyph-name="Thorn" unicode="&#xde;" horiz-adv-x="236" 
d="M118 570q28 0 48 -19.5t20 -47.5v-255q0 -29 -20 -48.5t-48 -19.5h-37v-165q0 -6 -4.5 -10.5t-10.5 -4.5q-7 0 -11.5 4.5t-4.5 10.5v720q0 6 4.5 10.5t11.5 4.5q6 0 10.5 -4.5t4.5 -10.5v-165h37zM155 503q0 15 -11 26t-26 11h-37v-330h37q15 0 26 11t11 27v255z" />
    <glyph glyph-name="germandbls" unicode="&#xdf;" 
d="M185 506q0 -16 -7 -29.5t-18 -23.5q11 -9 18 -22.5t7 -29.5v-334q0 -28 -19.5 -47.5t-47.5 -19.5q-7 0 -11.5 4.5t-4.5 10.5t4.5 10.5t11.5 4.5q15 0 26 11t11 26v334q0 15 -11 26t-26 11q-7 0 -11.5 4.5t-4.5 10.5q0 16 16 16q15 0 26 10.5t11 26.5v176q0 16 -11 26.5
t-26 10.5q-16 0 -27 -10.5t-11 -26.5v-667q0 -6 -4 -10.5t-11 -4.5q-6 0 -10.5 4.5t-4.5 10.5v667q0 28 19.5 48t48.5 20q28 0 47.5 -20t19.5 -48v-176z" />
    <glyph glyph-name="odieresis" unicode="&#xf6;" 
d="M118 390q28 0 47.5 -19.5t19.5 -47.5v-255q0 -28 -19.5 -48t-47.5 -20q-29 0 -48.5 20t-19.5 48v255q0 28 19.5 47.5t48.5 19.5zM155 323q0 15 -11 26t-26 11q-16 0 -27 -11t-11 -26v-255q0 -16 11 -26.5t27 -10.5q15 0 26 10.5t11 26.5v255zM88 447q-6 0 -10.5 4.5
t-4.5 10.5v35q0 7 4.5 11.5t10.5 4.5q15 0 15 -16v-35q0 -6 -4 -10.5t-11 -4.5zM146 447q-6 0 -10.5 4.5t-4.5 10.5v35q0 7 4.5 11.5t10.5 4.5q16 0 16 -16v-35q0 -6 -4.5 -10.5t-11.5 -4.5z" />
    <glyph glyph-name="otilde" unicode="&#xf5;" 
d="M117 390q29 0 48.5 -19.5t19.5 -47.5v-255q0 -28 -19.5 -48t-48.5 -20q-28 0 -47.5 20t-19.5 48v255q0 28 19.5 47.5t47.5 19.5zM154 323q0 15 -10.5 26t-26.5 11q-15 0 -26 -11t-11 -26v-255q0 -16 11 -26.5t26 -10.5q16 0 26.5 10.5t10.5 26.5v255zM92 451
q-12 0 -20.5 8.5t-8.5 20.5t8.5 20.5t20.5 8.5q3 0 7 -2l46 -36q6 4 6 9q0 9 -9 9q-10 0 -10 10t10 10q12 0 20.5 -8.5t8.5 -20.5t-8.5 -20.5t-20.5 -8.5q-5 0 -6 2l-46 35q-6 -2 -6 -8q0 -9 8 -9q11 0 11 -10t-11 -10z" />
    <glyph glyph-name="oacute" unicode="&#xf3;" 
d="M117 390q28 0 48 -19.5t20 -47.5v-255q0 -28 -20 -48t-48 -20t-47.5 20t-19.5 48v255q0 28 19.5 47.5t47.5 19.5zM154 323q0 15 -10.5 26t-26.5 11q-15 0 -26 -11t-11 -26v-255q0 -16 11 -26.5t26 -10.5q16 0 26.5 10.5t10.5 26.5v255zM99 446q-7 0 -11 4q-5 5 -5 11
t5 11l36 36q11 11 22 0q10 -11 0 -21l-37 -37q-3 -4 -10 -4z" />
    <glyph glyph-name="ograve" unicode="&#xf2;" 
d="M118 390q28 0 48 -19.5t20 -47.5v-255q0 -28 -20 -48t-48 -20t-48 20t-20 48v255q0 28 20 47.5t48 19.5zM155 323q0 15 -11 26t-26 11q-16 0 -26.5 -11t-10.5 -26v-255q0 -16 10.5 -26.5t26.5 -10.5q15 0 26 10.5t11 26.5v255zM89 487q-5 5 -5 10.5t5 10.5q10 10 21 0
l37 -36q5 -5 5 -11t-5 -11q-4 -4 -11 -4t-11 4z" />
    <glyph glyph-name="oslash" unicode="&#xf8;" 
d="M175 358q10 -18 10 -35v-255q0 -28 -20 -48t-48 -20q-22 0 -42 15l-1 -3q-2 -8 -9 -8q-1 0 -1.5 0.5t-1.5 0.5q-11 2 -7 12l4 16q-10 17 -10 35v255q0 28 20 47.5t48 19.5q23 0 42 -14l1 2q1 4 4.5 6.5t7.5 0.5q10 -3 7 -13zM80 103l69 238q-10 19 -32 19
q-16 0 -26.5 -11t-10.5 -26v-220zM117 31q15 0 26 10.5t11 26.5v218l-69 -237q11 -18 32 -18z" />
    <glyph glyph-name="adieresis" unicode="&#xe4;" horiz-adv-x="237" 
d="M119 390q28 0 47.5 -20t19.5 -48v-255q0 -28 -19.5 -47.5t-47.5 -19.5q-29 0 -48.5 19.5t-19.5 47.5v75q0 29 19.5 48.5t48.5 19.5q20 0 37 -11v123q0 16 -11 26.5t-26 10.5q-24 0 -34 -22h33q6 0 10.5 -4t4.5 -11q0 -6 -4.5 -10.5t-10.5 -4.5h-52q-6 0 -10.5 4.5
t-4.5 10.5q0 28 19.5 48t48.5 20zM156 142q0 16 -11 27t-26 11q-16 0 -27 -11t-11 -27v-75q0 -15 11 -26t27 -11q15 0 26 11t11 26v75zM90 439q-7 0 -11.5 4.5t-4.5 10.5v35q0 16 16 16q6 0 10.5 -4.5t4.5 -11.5v-35q0 -6 -4.5 -10.5t-10.5 -4.5zM148 439q-7 0 -11.5 4.5
t-4.5 10.5v35q0 16 16 16q6 0 10.5 -4.5t4.5 -11.5v-35q0 -6 -4.5 -10.5t-10.5 -4.5z" />
    <glyph glyph-name="yen" unicode="&#xa5;" horiz-adv-x="267" 
d="M211 750q6 0 10.5 -4.5t4.5 -10.5t-4.5 -10.5t-10.5 -4.5h-12l-46 -320h32q6 0 10.5 -4t4.5 -11q0 -6 -4.5 -10.5t-10.5 -4.5h-36l-1 -4v-24h37q6 0 10.5 -4.5t4.5 -10.5q0 -7 -4.5 -11t-10.5 -4h-37v-282h10q16 0 16 -15q0 -6 -4.5 -10.5t-11.5 -4.5h-51q-6 0 -10.5 4.5
t-4.5 10.5q0 7 4.5 11t10.5 4h11v282h-37q-6 0 -10.5 4t-4.5 11q0 6 4.5 10.5t10.5 4.5h37v24l-1 4h-36q-6 0 -10.5 4.5t-4.5 10.5q0 7 4.5 11t10.5 4h32l-46 320h-12q-6 0 -10.5 4.5t-4.5 10.5t4.5 10.5t10.5 4.5h51q7 0 11.5 -4.5t4.5 -10.5t-4.5 -10.5t-11.5 -4.5h-8
l35 -246l35 246h-9q-6 0 -10.5 4.5t-4.5 10.5t4.5 10.5t10.5 4.5h52v0z" />
    <glyph glyph-name="AE" unicode="&#xc6;" horiz-adv-x="321" 
d="M274 84q11 0 14 -10q2 -4 2 -7q0 -28 -19.5 -47.5t-48.5 -19.5h-52q-6 0 -10.5 4.5t-4.5 10.5v345h-75v-330h11q6 0 10.5 -4.5t4.5 -10.5t-4.5 -10.5t-10.5 -4.5h-52q-6 0 -10.5 4.5t-4.5 10.5t4.5 10.5t10.5 4.5h11v652q0 28 19.5 48t48.5 20q16 0 29.5 -7t22.5 -18
q9 11 22.5 18t29.5 7q29 0 48.5 -20t19.5 -48q0 -5 -3 -9q-5 -7 -13 -7h-52q-6 0 -10.5 4.5t-4.5 10.5t4.5 10.5t10.5 4.5h35q-10 23 -35 23q-15 0 -26 -10.5t-11 -26.5v-69v-223h74v11q0 6 4 10.5t11 4.5q6 0 10.5 -4.5t4.5 -10.5v-52q0 -6 -4.5 -10.5t-10.5 -4.5
q-7 0 -11 4.5t-4 10.5v11h-74v-330h37q12 0 21 6.5t14 17.5h-35q-6 0 -10.5 4.5t-4.5 10.5q0 7 4.5 11t10.5 4h52zM155 390v27v265q0 16 -11 26.5t-26 10.5q-16 0 -27 -10.5t-11 -26.5v-292h75z" />
    <glyph glyph-name="OE" unicode="&#x152;" horiz-adv-x="340" 
d="M274 84q11 0 14 -10q2 -4 2 -7q0 -28 -20 -47.5t-48 -19.5q-33 0 -52 25q-20 -25 -53 -25q-28 0 -47.5 19.5t-19.5 47.5v615q0 28 19.5 48t47.5 20q16 0 29.5 -7t23.5 -18q9 11 22.5 18t29.5 7q28 0 48 -20t20 -48q0 -2 -1 -4.5t-2 -4.5q-5 -7 -13 -7h-52q-6 0 -10.5 4.5
t-4.5 10.5t4.5 10.5t10.5 4.5h34q-8 23 -34 23q-16 0 -26.5 -10.5t-10.5 -26.5v-292h73v11q0 6 4.5 10.5t11.5 4.5q6 0 10.5 -4.5t4.5 -10.5v-52q0 -6 -4.5 -10.5t-10.5 -4.5q-7 0 -11.5 4.5t-4.5 10.5v11h-73v-293q0 -15 10.5 -26t26.5 -11q12 0 21 6.5t14 17.5h-35
q-6 0 -10.5 4.5t-4.5 10.5q0 7 4.5 11t10.5 4h52zM117 30q16 0 26.5 11t10.5 26v615q0 16 -10.5 26.5t-26.5 10.5q-15 0 -26 -10.5t-11 -26.5v-615q0 -15 11 -26t26 -11z" />
    <glyph glyph-name="quoteright" unicode="&#x2019;" horiz-adv-x="130" 
d="M65 750q7 0 11 -4.5t4 -10.5v-41q0 -16 -15 -16q-6 0 -10.5 4.5t-4.5 11.5v41q0 6 4.5 10.5t10.5 4.5z" />
    <glyph glyph-name="quoteleft" unicode="&#x2018;" horiz-adv-x="130" 
d="M65 750q7 0 11 -4.5t4 -10.5v-41q0 -16 -15 -16q-6 0 -10.5 4.5t-4.5 11.5v41q0 6 4.5 10.5t10.5 4.5z" />
    <glyph glyph-name="quotedblleft" unicode="&#x201c;" horiz-adv-x="180" 
d="M117 750q7 0 11 -4.5t4 -10.5v-41q0 -16 -15 -16q-6 0 -10.5 4.5t-4.5 11.5v41q0 6 4.5 10.5t10.5 4.5zM65 750q6 0 10.5 -4.5t4.5 -10.5v-41q0 -7 -4.5 -11.5t-10.5 -4.5q-15 0 -15 16v41q0 6 4 10.5t11 4.5z" />
    <glyph glyph-name="quotedblright" unicode="&#x201d;" horiz-adv-x="186" 
d="M117 750q7 0 11 -4.5t4 -10.5v-41q0 -16 -15 -16q-6 0 -10.5 4.5t-4.5 11.5v41q0 6 4.5 10.5t10.5 4.5zM65 750q6 0 10.5 -4.5t4.5 -10.5v-41q0 -7 -4.5 -11.5t-10.5 -4.5q-15 0 -15 16v41q0 6 4 10.5t11 4.5z" />
    <glyph glyph-name="Ograve" unicode="&#xd2;" horiz-adv-x="238" 
d="M118 747q28 0 48 -19.5t20 -47.5v-612q0 -29 -20 -48.5t-48 -19.5t-47.5 19.5t-19.5 48.5v612q0 28 19.5 47.5t47.5 19.5zM155 680q0 15 -10.5 26t-26.5 11q-15 0 -26 -11t-11 -26v-612q0 -16 11 -26.5t26 -10.5q16 0 26.5 10.5t10.5 26.5v612zM89 852q-9 11 0 22
q11 9 22 0l36 -37q10 -11 0 -21q-5 -5 -11 -5q-5 0 -10 5z" />
    <glyph glyph-name="Oacute" unicode="&#xd3;" horiz-adv-x="238" 
d="M118 747q28 0 47.5 -19.5t19.5 -47.5v-612q0 -29 -19.5 -48.5t-47.5 -19.5q-29 0 -48.5 19.5t-19.5 48.5v612q0 28 19.5 47.5t48.5 19.5zM155 680q0 15 -11 26t-26 11q-16 0 -26.5 -11t-10.5 -26v-612q0 -16 10.5 -26.5t26.5 -10.5q15 0 26 10.5t11 26.5v612zM99 811
q-5 0 -10 5t-5 10.5t5 10.5l36 37q5 4 11 4t10 -4q5 -5 5 -11t-5 -11l-36 -36q-5 -5 -11 -5z" />
    <glyph glyph-name="Ocircumflex" unicode="&#xd4;" horiz-adv-x="238" 
d="M118 747q28 0 47.5 -19.5t19.5 -47.5v-612q0 -29 -19.5 -48.5t-47.5 -19.5t-48 19.5t-20 48.5v612q0 28 20 47.5t48 19.5zM155 680q0 16 -11 26.5t-26 10.5q-16 0 -26.5 -10.5t-10.5 -26.5v-612q0 -16 10.5 -26.5t26.5 -10.5q15 0 26 10.5t11 26.5v612zM100 819
q-9 -12 -21 -2q-5 4 -5.5 10t3.5 11l29 35q5 5 12 5t11 -5l29 -35q5 -5 4 -11t-6 -10q-3 -4 -9 -4q-8 0 -12 6l-17 20z" />
    <glyph glyph-name="Otilde" unicode="&#xd5;" horiz-adv-x="238" 
d="M118 750q29 0 48.5 -19.5t19.5 -48.5v-614q0 -29 -19.5 -48.5t-48.5 -19.5q-28 0 -47.5 19.5t-19.5 48.5v614q0 29 19.5 48.5t47.5 19.5zM156 682q0 16 -11 27t-27 11q-15 0 -26 -11t-11 -27v-614q0 -16 11 -27t26 -11q16 0 27 11t11 27v614zM94 819q-12 0 -20.5 9
t-8.5 21t8.5 20.5t20.5 8.5q2 0 6 -2l46 -36q6 2 6 9q0 9 -9 9q-10 0 -10 10t10 10q12 0 20.5 -8.5t8.5 -20.5t-8.5 -21t-20.5 -9q-3 0 -6 3l-46 35q-6 -2 -6 -8q0 -9 9 -9q10 0 10 -10q0 -11 -10 -11z" />
    <glyph glyph-name="Odieresis" unicode="&#xd6;" horiz-adv-x="238" 
d="M118 747q28 0 48 -19.5t20 -47.5v-612q0 -29 -20 -48.5t-48 -19.5t-47.5 19.5t-19.5 48.5v612q0 28 19.5 47.5t47.5 19.5zM155 680q0 15 -10.5 26t-26.5 11q-15 0 -26 -11t-11 -26v-612q0 -16 11 -26.5t26 -10.5q16 0 26.5 10.5t10.5 26.5v612zM89 813q-6 0 -10.5 4.5
t-4.5 10.5v35q0 6 4.5 10.5t10.5 4.5q7 0 11 -4.5t4 -10.5v-35q0 -6 -4 -10.5t-11 -4.5zM147 813q-6 0 -10.5 4.5t-4.5 10.5v35q0 6 4.5 10.5t10.5 4.5t10.5 -4.5t4.5 -10.5v-35q0 -6 -4.5 -10.5t-10.5 -4.5z" />
    <glyph glyph-name="Oslash" unicode="&#xd8;" horiz-adv-x="238" 
d="M177 714q8 -14 8 -31v-615q0 -29 -19.5 -48.5t-48.5 -19.5q-22 0 -42 15v-1q-2 -9 -10 -9h-1q-11 2 -9 12l3 19q-8 14 -8 32v615q0 28 19.5 47.5t47.5 19.5q23 0 43 -15v1q0 5 3.5 7.5t7.5 1.5q11 -2 9 -12zM80 190l73 502q-3 12 -12.5 20t-23.5 8q-15 0 -26 -11t-11 -26
v-493zM117 30q16 0 26.5 11t10.5 27v492l-73 -502q4 -12 13.5 -20t22.5 -8z" />
    <glyph glyph-name="Yacute" unicode="&#xdd;" horiz-adv-x="267" 
d="M211 752q6 0 10.5 -4t4.5 -11q0 -6 -4.5 -10.5t-10.5 -4.5h-12l-51 -355v-337h11q6 0 10.5 -4.5t4.5 -10.5q0 -7 -4.5 -11t-10.5 -4h-52q-6 0 -10.5 4t-4.5 11q0 6 4.5 10.5t10.5 4.5h11v337l-51 355h-12q-6 0 -10.5 4.5t-4.5 10.5q0 7 4.5 11t10.5 4h52q6 0 10.5 -4
t4.5 -11q0 -6 -4.5 -10.5t-10.5 -4.5h-9l35 -247l35 247h-8q-7 0 -11.5 4.5t-4.5 10.5q0 15 16 15h51zM115 801q-6 0 -11 5q-5 4 -5 10t5 11l36 36q11 11 22 0q10 -11 0 -21l-36 -36q-5 -5 -11 -5z" />
    <glyph glyph-name="Zcaron" unicode="&#x17d;" horiz-adv-x="236" 
d="M170 82q6 0 10.5 -4.5t4.5 -10.5v-52q0 -6 -4.5 -10.5t-10.5 -4.5h-105q-6 0 -11 5q-4 4 -4 12l102 702h-71v-36q0 -15 -16 -15q-6 0 -10.5 4t-4.5 11v51q0 7 4.5 11.5t10.5 4.5h105q7 0 12 -6q4 -6 3 -12l-102 -702h72v37q0 6 4.5 10.5t10.5 4.5zM78 843q-5 5 -4 11
t6 10q5 5 11 4t10 -6l17 -21l18 21q4 5 10 6t11 -4q5 -4 6 -10t-4 -11l-29 -35q-5 -5 -12 -5q-6 0 -11 5z" />
    <glyph glyph-name="Ydieresis" unicode="&#x178;" horiz-adv-x="267" 
d="M211 752q15 0 15 -15q0 -6 -4 -10.5t-11 -4.5h-12l-51 -355v-337h11q6 0 10.5 -4.5t4.5 -10.5q0 -7 -4.5 -11t-10.5 -4h-52q-6 0 -10.5 4t-4.5 11q0 6 4.5 10.5t10.5 4.5h11v337l-51 355h-12q-6 0 -10.5 4.5t-4.5 10.5q0 7 4.5 11t10.5 4h52q6 0 10.5 -4t4.5 -11
q0 -6 -4.5 -10.5t-10.5 -4.5h-9l35 -247l36 247h-9q-7 0 -11 4.5t-4 10.5q0 15 15 15h51zM104 803q-6 0 -10.5 4t-4.5 11v35q0 6 4.5 10.5t10.5 4.5q7 0 11 -4.5t4 -10.5v-35q0 -15 -15 -15zM162 803q-6 0 -10.5 4t-4.5 11v35q0 6 4.5 10.5t10.5 4.5q7 0 11 -4.5t4 -10.5
v-35q0 -15 -15 -15z" />
    <glyph glyph-name="Ntilde" unicode="&#xd1;" horiz-adv-x="255" 
d="M206 30q6 0 10.5 -4.5t4.5 -10.5q0 -7 -4.5 -11t-10.5 -4h-52q-6 0 -10.5 4t-4.5 11q0 6 4.5 10.5t10.5 4.5h11v344l-75 256v-600h11q6 0 10.5 -4.5t4.5 -10.5q0 -7 -4.5 -11t-10.5 -4h-52q-15 0 -15 15q0 6 4 10.5t11 4.5h10v692h-10q-7 0 -11 4.5t-4 10.5q0 16 15 16
h52q6 0 10.5 -4.5t4.5 -11.5q0 -6 -4.5 -10.5t-10.5 -4.5h-6l70 -239v239h-11q-6 0 -10.5 4.5t-4.5 10.5q0 7 4.5 11.5t10.5 4.5h52q6 0 10.5 -4.5t4.5 -11.5q0 -6 -4.5 -10.5t-10.5 -4.5h-11v-692h11zM103 809q-13 0 -21.5 8.5t-8.5 20.5q0 13 8.5 21.5t21.5 8.5q2 0 6 -2
l46 -36q6 1 6 8q0 9 -9 9q-10 0 -10 11q0 10 10 10q12 0 20.5 -8.5t8.5 -21.5q0 -12 -8.5 -20.5t-20.5 -8.5q-2 0 -6 2l-46 36q-6 -2 -6 -9q0 -3 2.5 -6t6.5 -3q10 0 10 -10t-10 -10z" />
    <glyph glyph-name="Scaron" unicode="&#x160;" horiz-adv-x="210" 
d="M93 678q0 7 4.5 11.5t10.5 4.5h35q-4 11 -13.5 18t-21.5 7q-16 0 -26.5 -10.5t-11.5 -25.5l105 -613v-3q0 -28 -19.5 -47.5t-47.5 -19.5q-29 0 -48.5 19.5t-19.5 47.5v2v1q0 7 4.5 11.5t10.5 4.5h52q6 0 10.5 -4.5t4.5 -11.5q0 -6 -4.5 -10.5t-10.5 -4.5h-34
q4 -11 13 -18t22 -7q15 0 25.5 10.5t11.5 25.5l-105 614v2q0 28 19.5 48t48.5 20q28 0 47.5 -20t19.5 -48v-2v-2q0 -6 -4.5 -10.5t-10.5 -4.5h-52q-6 0 -10.5 4.5t-4.5 10.5zM67 843q-5 5 -4 11t6 10q5 5 11 4t10 -6l18 -21l17 21q4 5 10 6t11 -4q5 -4 6 -10t-4 -11l-29 -35
q-5 -6 -11 -6q-8 0 -12 6z" />
    <glyph glyph-name="Aring" unicode="&#xc5;" 
d="M196 30q6 0 10.5 -4.5t4.5 -10.5t-4.5 -10.5t-10.5 -4.5h-52q-6 0 -10.5 4.5t-4.5 10.5t4.5 10.5t10.5 4.5h11v326h-74v-326h11q6 0 10.5 -4.5t4.5 -10.5t-4.5 -10.5t-10.5 -4.5h-51q-7 0 -11 4.5t-4 10.5t4 10.5t11 4.5h10v646q0 28 19.5 47.5t47.5 19.5t47.5 -19.5
t19.5 -47.5v-69v-577h11zM155 387v26v263q0 15 -11 26t-26 11t-26 -11t-11 -26v-289h74zM118 799q-14 0 -24.5 10t-10.5 25q0 14 10.5 24t24.5 10t24.5 -10t10.5 -24q0 -15 -10.5 -25t-24.5 -10zM118 848q-6 0 -10.5 -4t-4.5 -10q0 -7 4.5 -11t10.5 -4t10.5 4t4.5 11
q0 6 -4.5 10t-10.5 4z" />
    <glyph glyph-name="Atilde" unicode="&#xc3;" 
d="M94 809q-12 0 -21 8.5t-9 20.5t9 21t21 9q2 0 6 -2l46 -36q6 1 6 8q0 9 -9 9q-10 0 -10 10q0 11 10 11q12 0 21 -9t9 -21t-9 -20.5t-21 -8.5q-2 0 -6 2l-46 36q-6 -2 -6 -9q0 -9 9 -9q10 0 10 -10t-10 -10zM197 30q6 0 10.5 -4.5t4.5 -10.5q0 -7 -4.5 -11t-10.5 -4h-52
q-6 0 -10.5 4t-4.5 11q0 6 4.5 10.5t10.5 4.5h11v331h-75v-331h11q6 0 10.5 -4.5t4.5 -10.5q0 -7 -4.5 -11t-10.5 -4h-52q-6 0 -10.5 4t-4.5 11q0 6 4.5 10.5t10.5 4.5h11v655q0 28 19.5 48t47.5 20q29 0 48.5 -20t19.5 -48v-70v-585h11zM156 391v27v267q0 15 -11 26t-27 11
q-15 0 -26 -11t-11 -26v-294h75z" />
    <glyph glyph-name="Aacute" unicode="&#xc1;" 
d="M100 801q-6 0 -10 4q-5 5 -5 11t5 11l36 36q11 11 22 0q10 -11 0 -21l-37 -37q-4 -4 -11 -4zM197 30q6 0 10.5 -4.5t4.5 -10.5t-4.5 -10.5t-10.5 -4.5h-52q-6 0 -10.5 4.5t-4.5 10.5t4.5 10.5t10.5 4.5h11v330h-75v-330h11q6 0 10.5 -4.5t4.5 -10.5t-4.5 -10.5
t-10.5 -4.5h-52q-6 0 -10.5 4.5t-4.5 10.5t4.5 10.5t10.5 4.5h11v652q0 28 19.5 48t48.5 20q28 0 47.5 -20t19.5 -48v-69v-583h11zM156 390v27v265q0 16 -11 26.5t-26 10.5q-16 0 -27 -10.5t-11 -26.5v-292h75z" />
    <glyph glyph-name="Agrave" unicode="&#xc0;" 
d="M89 842q-5 5 -5 10.5t5 10.5q11 11 22 0l36 -36q5 -5 5 -11t-5 -11q-4 -4 -11 -4t-11 4zM196 30q7 0 11 -4.5t4 -10.5t-4 -10.5t-11 -4.5h-51q-7 0 -11.5 4.5t-4.5 10.5t4.5 10.5t11.5 4.5h10v330h-74v-330h10q7 0 11.5 -4.5t4.5 -10.5t-4.5 -10.5t-11.5 -4.5h-51
q-7 0 -11 4.5t-4 10.5t4 10.5t11 4.5h10v652q0 28 20 48t48 20t48 -20t20 -48v-69v-583h10zM155 390v27v265q0 16 -11 26.5t-26 10.5t-26 -10.5t-11 -26.5v-292h74z" />
    <glyph glyph-name="Adieresis" unicode="&#xc4;" 
d="M89 802q-15 0 -15 16v35q0 6 4 10.5t11 4.5q6 0 10.5 -4.5t4.5 -10.5v-35q0 -7 -4.5 -11.5t-10.5 -4.5zM147 802q-15 0 -15 16v35q0 6 4 10.5t11 4.5q6 0 10.5 -4.5t4.5 -10.5v-35q0 -7 -4.5 -11.5t-10.5 -4.5zM196 30q6 0 10.5 -4.5t4.5 -10.5t-4.5 -10.5t-10.5 -4.5
h-52q-6 0 -10.5 4.5t-4.5 10.5t4.5 10.5t10.5 4.5h11v330h-74v-330h10q7 0 11 -4.5t4 -10.5t-4 -10.5t-11 -4.5h-51q-7 0 -11.5 4.5t-4.5 10.5t4.5 10.5t11.5 4.5h10v652q0 28 20 48t48 20t47.5 -20t19.5 -48v-69v-583h11zM155 390v27v265q0 16 -11 26.5t-26 10.5
q-16 0 -26.5 -10.5t-10.5 -26.5v-292h74z" />
    <glyph glyph-name="Acircumflex" unicode="&#xc2;" 
d="M100 808q-5 -5 -11 -5.5t-11 3.5t-5.5 10t3.5 11l29 35q4 6 12 6q7 0 12 -6l29 -35q4 -5 3.5 -11t-5.5 -10q-6 -4 -10 -4q-7 0 -11 6l-18 21zM195 30q7 0 11.5 -4.5t4.5 -10.5t-4.5 -10.5t-11.5 -4.5h-51q-7 0 -11 4.5t-4 10.5t4 10.5t11 4.5h10v330h-74v-330h11
q6 0 10.5 -4.5t4.5 -10.5t-4.5 -10.5t-10.5 -4.5h-52q-6 0 -10.5 4.5t-4.5 10.5t4.5 10.5t10.5 4.5h11v652q0 28 19.5 48t47.5 20t48 -20t20 -48v-69v-583h10zM154 390v27v265q0 16 -10.5 26.5t-26.5 10.5q-15 0 -26 -10.5t-11 -26.5v-292h74z" />
    <glyph glyph-name="Edieresis" unicode="&#xcb;" horiz-adv-x="231" 
d="M169 84q11 0 14 -10q2 -4 2 -7q0 -28 -19.5 -47.5t-48.5 -19.5q-28 0 -47.5 19.5t-19.5 47.5v615q0 28 19.5 48t47.5 20q29 0 48.5 -20t19.5 -48q0 -5 -3 -9q-5 -7 -13 -7h-52q-6 0 -10.5 4.5t-4.5 10.5t4.5 10.5t10.5 4.5h35q-10 23 -35 23q-15 0 -26 -10.5t-11 -26.5
v-292h74v11q0 6 4.5 10.5t10.5 4.5t10.5 -4.5t4.5 -10.5v-52q0 -6 -4.5 -10.5t-10.5 -4.5t-10.5 4.5t-4.5 10.5v11h-74v-293q0 -15 11 -26t26 -11q12 0 21.5 6.5t13.5 17.5h-35q-6 0 -10.5 4.5t-4.5 10.5q0 7 4.5 11t10.5 4h52zM88 802q-6 0 -10.5 4.5t-4.5 11.5v35
q0 6 4.5 10.5t10.5 4.5q7 0 11.5 -4.5t4.5 -10.5v-35q0 -16 -16 -16zM146 802q-6 0 -10.5 4.5t-4.5 11.5v35q0 6 4.5 10.5t10.5 4.5q7 0 11.5 -4.5t4.5 -10.5v-35q0 -16 -16 -16z" />
    <glyph glyph-name="Ecircumflex" unicode="&#xca;" horiz-adv-x="231" 
d="M168 84q12 0 15 -10q1 -2 1 -7q0 -28 -19.5 -47.5t-47.5 -19.5t-47.5 19.5t-19.5 47.5v611q0 28 19.5 47.5t47.5 19.5t47.5 -19.5t19.5 -47.5q0 -6 -3 -9q-4 -7 -13 -7h-51q-6 0 -10.5 4t-4.5 11q0 6 4.5 10.5t10.5 4.5h34q-4 10 -13 16.5t-21 6.5q-15 0 -26 -11t-11 -26
v-290h73v10q0 6 4.5 10.5t10.5 4.5q7 0 11 -4.5t4 -10.5v-51q0 -6 -4 -10.5t-11 -4.5q-6 0 -10.5 4.5t-4.5 10.5v10h-73v-290q0 -15 11 -26t26 -11q12 0 21 6.5t13 17.5h-34q-6 0 -10.5 4.5t-4.5 10.5t4.5 10.5t10.5 4.5h51zM100 809q-4 -5 -10 -5.5t-11 3.5t-6 10t4 11
l29 35q4 5 11 5t12 -5l29 -35q4 -5 3.5 -11t-5.5 -10q-6 -4 -10 -4q-8 0 -12 6l-17 21z" />
    <glyph glyph-name="Eacute" unicode="&#xc9;" horiz-adv-x="231" 
d="M170 84q11 0 14 -10q2 -4 2 -7q0 -28 -20 -47.5t-48 -19.5t-48 19.5t-20 47.5v615q0 28 20 48t48 20t48 -20t20 -48q0 -3 -4 -9q-4 -7 -12 -7h-52q-6 0 -10.5 4.5t-4.5 10.5t4.5 10.5t10.5 4.5h34q-4 11 -13.5 17t-20.5 6q-16 0 -26.5 -10.5t-10.5 -26.5v-292h73v11
q0 6 4.5 10.5t11.5 4.5q6 0 10.5 -4.5t4.5 -10.5v-52q0 -6 -4.5 -10.5t-10.5 -4.5q-7 0 -11.5 4.5t-4.5 10.5v11h-73v-293q0 -15 10.5 -26t26.5 -11q12 0 21 6.5t14 17.5h-35q-6 0 -10.5 4.5t-4.5 10.5q0 7 4.5 11t10.5 4h52zM100 801q-7 0 -11 4q-5 5 -5 11t5 11l36 36
q11 11 22 0q10 -11 0 -21l-37 -37q-4 -4 -10 -4z" />
    <glyph glyph-name="Egrave" unicode="&#xc8;" horiz-adv-x="231" 
d="M169 84q11 0 14 -10q2 -4 2 -7q0 -28 -20 -47.5t-48 -19.5t-47.5 19.5t-19.5 47.5v615q0 28 19.5 48t47.5 20t48 -20t20 -48q0 -2 -1 -4.5t-2 -4.5q-5 -7 -13 -7h-52q-6 0 -10.5 4.5t-4.5 10.5t4.5 10.5t10.5 4.5h34q-8 23 -34 23q-15 0 -26 -10.5t-11 -26.5v-292h73v11
q0 6 4.5 10.5t11.5 4.5q6 0 10.5 -4.5t4.5 -10.5v-52q0 -6 -4.5 -10.5t-10.5 -4.5q-7 0 -11.5 4.5t-4.5 10.5v11h-73v-293q0 -15 11 -26t26 -11q12 0 21 6.5t14 17.5h-35q-6 0 -10.5 4.5t-4.5 10.5q0 7 4.5 11t10.5 4h52zM88 842q-5 5 -5 10.5t5 10.5q11 11 22 0l36 -36
q5 -5 5 -11t-5 -11q-4 -4 -11 -4q-6 0 -10 4z" />
    <glyph glyph-name="Iacute" unicode="&#xcd;" horiz-adv-x="150" 
d="M90 719v-689h11q6 0 10.5 -4.5t4.5 -10.5t-4.5 -10.5t-10.5 -4.5h-52q-6 0 -10.5 4.5t-4.5 10.5t4.5 10.5t10.5 4.5h11v689h-11q-6 0 -10.5 4t-4.5 11q0 6 4.5 10.5t10.5 4.5h52q6 0 10.5 -4.5t4.5 -10.5q0 -7 -4.5 -11t-10.5 -4h-11zM122 863q10 -11 0 -21l-36 -37
q-4 -4 -11 -4t-11 4q-5 5 -5 11t5 11l37 36q10 10 21 0z" />
    <glyph glyph-name="Igrave" unicode="&#xcc;" horiz-adv-x="150" 
d="M101 30q6 0 10.5 -4.5t4.5 -10.5t-4.5 -10.5t-10.5 -4.5h-52q-6 0 -10.5 4.5t-4.5 10.5t4.5 10.5t10.5 4.5h11v689h-11q-6 0 -10.5 4t-4.5 11q0 6 4.5 10.5t10.5 4.5h52q6 0 10.5 -4.5t4.5 -10.5q0 -7 -4.5 -11t-10.5 -4h-11v-689h11zM75 801q-7 0 -11 4l-36 37
q-5 5 -5 10.5t5 10.5q10 10 21 0l37 -36q5 -5 5 -11t-5 -11q-4 -4 -11 -4z" />
    <glyph glyph-name="Idieresis" unicode="&#xcf;" horiz-adv-x="150" 
d="M90 719v-689h10q7 0 11 -4.5t4 -10.5t-4 -10.5t-11 -4.5h-51q-7 0 -11.5 4.5t-4.5 10.5t4.5 10.5t11.5 4.5h10v689h-10q-16 0 -16 15q0 6 4.5 10.5t11.5 4.5h51q7 0 11 -4.5t4 -10.5q0 -15 -15 -15h-10zM45 802q-6 0 -10.5 4.5t-4.5 11.5v35q0 6 4.5 10.5t10.5 4.5
q7 0 11.5 -4.5t4.5 -10.5v-35q0 -16 -16 -16zM104 868q6 0 10.5 -4.5t4.5 -10.5v-35q0 -7 -4.5 -11.5t-10.5 -4.5q-16 0 -16 16v35q0 6 4.5 10.5t11.5 4.5z" />
    <glyph glyph-name="Icircumflex" unicode="&#xce;" horiz-adv-x="150" 
d="M89 714v-684h10q7 0 11 -4.5t4 -10.5t-4 -10.5t-11 -4.5h-51q-6 0 -10.5 4.5t-4.5 10.5t4.5 10.5t10.5 4.5h11v684h-11q-6 0 -10.5 4.5t-4.5 10.5q0 7 4.5 11t10.5 4h51q15 0 15 -15q0 -6 -4 -10.5t-11 -4.5h-10zM56 809q-4 -5 -10 -5.5t-11 3.5t-5.5 10t3.5 11l29 35
q5 5 12 5t11 -5l29 -35q4 -5 3.5 -11t-5.5 -10q-6 -4 -9 -4q-8 0 -12 6l-17 21z" />
    <glyph glyph-name="Uacute" unicode="&#xda;" horiz-adv-x="250" 
d="M203 750q6 0 10.5 -4.5t4.5 -11.5q0 -6 -4.5 -10.5t-10.5 -4.5h-11v-652q0 -28 -19.5 -47.5t-47.5 -19.5q-29 0 -48.5 19.5t-19.5 47.5v652h-10q-7 0 -11.5 4.5t-4.5 10.5q0 16 16 16h51q15 0 15 -16q0 -6 -4 -10.5t-11 -4.5h-11v-652q0 -15 11 -26t27 -11q15 0 26 11
t11 26v652h-11q-6 0 -10.5 4.5t-4.5 10.5q0 7 4.5 11.5t10.5 4.5h52zM106 801q-6 0 -10 4q-5 5 -5 11t5 11l36 36q11 11 22 0q10 -11 0 -21l-37 -37q-4 -4 -11 -4z" />
    <glyph glyph-name="Ugrave" unicode="&#xd9;" horiz-adv-x="250" 
d="M203 750q6 0 10.5 -4.5t4.5 -11.5q0 -6 -4.5 -10.5t-10.5 -4.5h-11v-652q0 -28 -19.5 -47.5t-47.5 -19.5q-29 0 -48.5 19.5t-19.5 47.5v652h-10q-7 0 -11.5 4.5t-4.5 10.5q0 16 16 16h51q15 0 15 -16q0 -6 -4 -10.5t-11 -4.5h-11v-652q0 -15 11 -26t27 -11q15 0 26 11
t11 26v652h-11q-6 0 -10.5 4.5t-4.5 10.5q0 7 4.5 11.5t10.5 4.5h52zM96 842q-5 5 -5 10.5t5 10.5q10 10 21 0l37 -36q5 -5 5 -11t-5 -11q-4 -4 -11 -4t-11 4z" />
    <glyph glyph-name="Ucircumflex" unicode="&#xdb;" horiz-adv-x="250" 
d="M203 745q6 0 10.5 -4.5t4.5 -10.5t-4.5 -10.5t-10.5 -4.5h-11v-648q0 -28 -19.5 -47.5t-47.5 -19.5t-47.5 19.5t-19.5 47.5v648h-10q-7 0 -11 4.5t-4 10.5t4 10.5t11 4.5h51q6 0 10.5 -4.5t4.5 -10.5t-4.5 -10.5t-10.5 -4.5h-11v-648q0 -15 11 -26t26 -11q16 0 26.5 11
t10.5 26v648h-10q-7 0 -11 4.5t-4 10.5t4 10.5t11 4.5h51zM108 809q-4 -5 -10 -5.5t-11 3.5t-6 10t4 11l29 35q4 5 11 5t12 -5l29 -35q4 -5 3.5 -11t-5.5 -10q-6 -4 -10 -4q-8 0 -12 6l-17 21z" />
    <glyph glyph-name="Udieresis" unicode="&#xdc;" horiz-adv-x="250" 
d="M202 750q16 0 16 -16q0 -6 -4.5 -10.5t-11.5 -4.5h-10v-652q0 -28 -20 -47.5t-48 -19.5t-47.5 19.5t-19.5 47.5v652h-11q-6 0 -10.5 4.5t-4.5 10.5q0 7 4.5 11.5t10.5 4.5h52q6 0 10.5 -4.5t4.5 -11.5q0 -6 -4.5 -10.5t-10.5 -4.5h-11v-652q0 -15 11 -26t26 -11
q16 0 26.5 11t10.5 26v652h-10q-7 0 -11 4.5t-4 10.5q0 16 15 16h51zM95 802q-6 0 -10.5 4.5t-4.5 11.5v35q0 6 4.5 10.5t10.5 4.5q7 0 11 -4.5t4 -10.5v-35q0 -16 -15 -16zM153 802q-6 0 -10.5 4.5t-4.5 11.5v35q0 6 4.5 10.5t10.5 4.5q7 0 11 -4.5t4 -10.5v-35
q0 -16 -15 -16z" />
    <glyph glyph-name="Ccedilla" unicode="&#xc7;" 
d="M170 85q16 0 16 -16l-1 -1h1q0 -26 -17.5 -45.5t-43.5 -22.5l-8 -19q19 -10 19 -31q0 -14 -9 -24t-23 -10q-11 0 -11 10t11 10q5 0 8.5 4t3.5 10q0 5 -3.5 9.5t-8.5 4.5h-4q-1 1 -1.5 1t-1.5 1h-1q0 1 -1 2q0 1 -1 2v1q0 1 -0.5 1.5t-0.5 1.5l1 2v1v1l10 23
q-23 5 -38.5 23.5t-15.5 43.5v614q0 29 20 48.5t48 19.5t48 -19.5t20 -48.5q0 -6 -4.5 -10.5t-11.5 -4.5h-51q-7 0 -11 4.5t-4 10.5q0 16 15 16h33q-10 22 -34 22q-16 0 -26.5 -11t-10.5 -27v-614q0 -16 10.5 -27t26.5 -11q12 0 21 6.5t14 17.5h-34q-7 0 -11 4.5t-4 10.5
q0 16 15 16h51v0z" />
    <glyph glyph-name="multiply" unicode="&#xd7;" horiz-adv-x="204" 
d="M149 238q12 -11 1 -22q-5 -5 -11 -4.5t-11 5.5l-26 26l-27 -27q-5 -5 -10.5 -5t-10.5 5t-5 11t5 10l27 27l-26 26q-5 5 -5.5 11t4.5 11q10 10 22 0l26 -27l26 27q5 5 11 4.5t10 -4.5q5 -5 5 -11t-5 -11l-26 -26l26 -26v0z" />
    <glyph glyph-name="mu" unicode="&#xb5;" 
d="M196 391q6 0 10.5 -4.5t4.5 -11.5q0 -6 -4.5 -10.5t-10.5 -4.5h-11v-292q0 -28 -19.5 -48t-47.5 -20q-22 0 -38 12v-64q0 -6 -4 -10.5t-11 -4.5q-6 0 -10.5 4.5t-4.5 10.5v120v127v165h-11q-6 0 -10.5 4.5t-4.5 10.5q0 7 4.5 11.5t10.5 4.5h52q6 0 10.5 -4.5t4.5 -11.5
q0 -6 -4.5 -10.5t-10.5 -4.5h-11v-165v-127q0 -16 11 -26.5t27 -10.5q15 0 26 10.5t11 26.5v292h-11q-6 0 -10.5 4.5t-4.5 10.5q0 7 4.5 11.5t10.5 4.5h52v0z" />
    <glyph glyph-name="mu" unicode="&#x3bc;" 
d="M196 391q6 0 10.5 -4.5t4.5 -11.5q0 -6 -4.5 -10.5t-10.5 -4.5h-11v-292q0 -28 -19.5 -48t-47.5 -20q-22 0 -38 12v-64q0 -6 -4 -10.5t-11 -4.5q-6 0 -10.5 4.5t-4.5 10.5v120v127v165h-11q-6 0 -10.5 4.5t-4.5 10.5q0 7 4.5 11.5t10.5 4.5h52q6 0 10.5 -4.5t4.5 -11.5
q0 -6 -4.5 -10.5t-10.5 -4.5h-11v-165v-127q0 -16 11 -26.5t27 -10.5q15 0 26 10.5t11 26.5v292h-11q-6 0 -10.5 4.5t-4.5 10.5q0 7 4.5 11.5t10.5 4.5h52v0z" />
    <glyph glyph-name="fi" unicode="&#xfb01;" 
d="M170 390q6 0 10.5 -4.5t4.5 -10.5v-360q0 -7 -4.5 -11t-10.5 -4q-16 0 -16 15v344h-74v-292q0 -24 22 -34v33q0 7 4.5 11.5t10.5 4.5t10.5 -4.5t4.5 -11.5v-49v-2q0 -15 -15 -15q-28 0 -47.5 19.5t-19.5 47.5v615q0 28 19.5 48t47.5 20t48 -20t20 -48q0 -5 -3 -9
q-5 -7 -13 -7h-51q-7 0 -11.5 4.5t-4.5 10.5q0 15 16 15h33q-8 23 -34 23q-15 0 -26 -11t-11 -26v-292h90v0z" />
    <glyph glyph-name="fl" unicode="&#xfb02;" horiz-adv-x="270" 
d="M222 29q6 0 10.5 -4t4.5 -11q0 -6 -4.5 -10.5t-10.5 -4.5q-28 0 -48 19.5t-20 48.5v614q0 16 -10.5 27t-26.5 11q-15 0 -26 -11t-11 -27v-292h37q15 0 15 -15q0 -6 -4 -10.5t-11 -4.5h-37v-292q0 -24 22 -34v33q0 7 4.5 11t10.5 4t10.5 -4t4.5 -11v-49v-2q0 -16 -15 -16
q-28 1 -47.5 20.5t-19.5 47.5v614q0 29 19.5 48.5t47.5 19.5t48 -19.5t20 -48.5v-614q0 -16 10.5 -27t26.5 -11z" />
  </font>
</defs>
</svg>
